<svg width="988" height="227" viewBox="0 0 988 227" fill="none" xmlns="http://www.w3.org/2000/svg">
<rect x="22.5" y="23.5" width="960.357" height="199" rx="31.5" fill="#8AF5FF" stroke="#FFA3EB" stroke-width="9"/>
<rect x="5.14258" y="4.5" width="960.357" height="199" rx="31.5" fill="white" stroke="#9AC6FF" stroke-width="9"/>
<path d="M117.85 78.3C117.85 78.3 117.817 77.8333 117.75 76.9C117.717 75.9667 117.65 74.7667 117.55 73.3C117.483 71.8333 117.4 70.2667 117.3 68.6C117.2 66.9 117.1 65.2833 117 63.75C116.933 62.1833 116.883 60.8833 116.85 59.85C116.817 58.7833 116.8 58.15 116.8 57.95C116.867 57.3833 116.917 56.9333 116.95 56.6C117.017 56.2333 117.183 55.9833 117.45 55.85C117.65 55.75 117.7 55.6167 117.6 55.45C117.533 55.2833 117.517 55.0667 117.55 54.8C117.617 54.5333 117.95 54.25 118.55 53.95C119.017 53.7167 119.75 53.3833 120.75 52.95C121.783 52.4833 123.017 52.1167 124.45 51.85C125.883 51.5833 127.417 51.6167 129.05 51.95C130.683 52.25 132.333 53.0333 134 54.3C135.133 55.1667 135.817 56.0667 136.05 57C136.317 57.9 136.317 58.7833 136.05 59.65C135.783 60.4833 135.4 61.25 134.9 61.95C134.4 62.6167 133.933 63.15 133.5 63.55C133.1 63.95 132.9 64.15 132.9 64.15C132.9 64.15 133.133 64.2333 133.6 64.4C134.067 64.5667 134.633 64.8333 135.3 65.2C136 65.5667 136.7 66.0667 137.4 66.7C138.1 67.3 138.683 68.05 139.15 68.95C139.65 69.85 139.917 70.9 139.95 72.1C140.017 74.1333 139.383 75.8 138.05 77.1C136.75 78.4 134.933 79.3833 132.6 80.05C130.3 80.6833 127.65 81 124.65 81C122.917 81 121.583 80.8667 120.65 80.6C119.717 80.3333 119.05 80.0167 118.65 79.65C118.25 79.2833 118.017 78.9667 117.95 78.7C117.883 78.4333 117.85 78.3 117.85 78.3ZM124.5 56.75C124.5 56.75 124.5 57.0167 124.5 57.55C124.533 58.05 124.55 58.65 124.55 59.35C124.583 60.05 124.617 60.7 124.65 61.3C124.717 61.8667 124.783 62.2167 124.85 62.35C124.917 62.4833 125.15 62.45 125.55 62.25C125.95 62.05 126.367 61.75 126.8 61.35C127.267 60.9167 127.633 60.4333 127.9 59.9C128.2 59.3333 128.3 58.7833 128.2 58.25C127.967 57.1833 127.483 56.5667 126.75 56.4C126.017 56.2333 125.267 56.35 124.5 56.75ZM125.6 68.35L125.95 76.65C125.95 76.65 126.183 76.65 126.65 76.65C127.117 76.65 127.683 76.6 128.35 76.5C129.017 76.4 129.667 76.1833 130.3 75.85C130.967 75.5167 131.483 75.0333 131.85 74.4C132.25 73.7333 132.383 72.8333 132.25 71.7C132.117 70.5667 131.8 69.7333 131.3 69.2C130.833 68.6333 130.267 68.2667 129.6 68.1C128.967 67.9333 128.333 67.8833 127.7 67.95C127.1 67.9833 126.6 68.0667 126.2 68.2C125.8 68.3 125.6 68.35 125.6 68.35ZM146.942 52.1C146.942 52.1 147.158 52.1333 147.592 52.2C148.025 52.2333 148.508 52.3833 149.042 52.65C149.608 52.8833 150.092 53.3167 150.492 53.95C150.892 54.55 151.058 55.4333 150.992 56.6C150.958 57.3667 150.908 58.4 150.842 59.7C150.808 60.9667 150.792 62.3667 150.792 63.9C150.792 65.4 150.825 66.9 150.892 68.4C150.992 69.9 151.142 71.2833 151.342 72.55C151.575 73.8167 151.875 74.8333 152.242 75.6C152.642 76.3333 153.125 76.6833 153.692 76.65C154.292 76.6167 154.742 76.2167 155.042 75.45C155.342 74.65 155.542 73.65 155.642 72.45C155.742 71.2167 155.775 69.9167 155.742 68.55C155.708 67.1833 155.642 65.8833 155.542 64.65C155.442 63.3833 155.342 62.35 155.242 61.55C155.175 60.7167 155.125 60.25 155.092 60.15C155.058 60.0167 155.008 59.7333 154.942 59.3C154.875 58.8667 154.908 58.4 155.042 57.9C155.175 57.4 155.508 56.95 156.042 56.55C156.608 56.15 157.492 55.9 158.692 55.8C159.892 55.7 160.825 55.85 161.492 56.25C162.158 56.65 162.625 57.1333 162.892 57.7C163.192 58.2667 163.358 58.7667 163.392 59.2C163.458 59.6333 163.492 59.85 163.492 59.85C163.492 59.85 163.542 60.2333 163.642 61C163.775 61.7667 163.875 62.7833 163.942 64.05C164.042 65.2833 164.042 66.65 163.942 68.15C163.875 69.65 163.658 71.1667 163.292 72.7C162.958 74.2 162.408 75.5833 161.642 76.85C160.875 78.0833 159.842 79.0833 158.542 79.85C157.242 80.6167 155.608 81 153.642 81C151.675 81 150.008 80.6 148.642 79.8C147.308 78.9667 146.208 77.8833 145.342 76.55C144.508 75.1833 143.858 73.6667 143.392 72C142.958 70.3333 142.658 68.6333 142.492 66.9C142.358 65.1333 142.292 63.4667 142.292 61.9C142.325 60.3333 142.375 58.9667 142.442 57.8C142.542 56.6333 142.608 55.8 142.642 55.3C142.708 54.4333 142.958 53.7833 143.392 53.35C143.825 52.8833 144.308 52.5667 144.842 52.4C145.408 52.2333 145.892 52.15 146.292 52.15C146.725 52.1167 146.942 52.1 146.942 52.1ZM169.88 51.65C169.88 51.65 170.164 51.6167 170.73 51.55C171.297 51.4833 171.964 51.5667 172.73 51.8C173.53 52.0333 174.214 52.6 174.78 53.5C175.147 54.0667 175.514 54.75 175.88 55.55C176.28 56.3167 176.63 57.0833 176.93 57.85C177.264 58.6167 177.53 59.25 177.73 59.75C177.93 60.25 178.03 60.5 178.03 60.5L181.03 53.2C181.03 53.2 181.147 53.05 181.38 52.75C181.647 52.45 182.064 52.1667 182.63 51.9C183.23 51.6333 184.047 51.5333 185.08 51.6C188.114 51.8 189.23 52.75 188.43 54.45C188.264 54.7833 187.964 55.4 187.53 56.3C187.097 57.1667 186.597 58.15 186.03 59.25C185.497 60.3167 184.964 61.3667 184.43 62.4C183.93 63.4333 183.514 64.2833 183.18 64.95C182.847 65.6167 182.68 65.95 182.68 65.95L182.93 78.15C182.93 78.15 182.93 78.3 182.93 78.6C182.964 78.8667 182.897 79.2 182.73 79.6C182.564 79.9667 182.214 80.3 181.68 80.6C181.147 80.8667 180.33 81 179.23 81C177.764 81 176.68 80.8 175.98 80.4C175.314 80 174.897 79.5667 174.73 79.1C174.564 78.6 174.48 78.2333 174.48 78C174.48 77.8667 174.464 77.3667 174.43 76.5C174.43 75.6333 174.43 74.6167 174.43 73.45C174.43 72.2833 174.414 71.1167 174.38 69.95C174.38 68.7833 174.364 67.8167 174.33 67.05C174.33 66.2833 174.33 65.9 174.33 65.9L167.68 55.3C167.68 55.3 167.58 55.15 167.38 54.85C167.18 54.55 167.047 54.2 166.98 53.8C166.947 53.3667 167.13 52.95 167.53 52.55C167.93 52.15 168.714 51.85 169.88 51.65ZM195.003 81C193.903 81 193.136 80.8667 192.703 80.6C192.269 80.3 192.019 79.9833 191.953 79.65C191.919 79.2833 191.953 78.9667 192.053 78.7C192.186 78.4 192.253 78.25 192.253 78.25L204.303 55.85C204.303 55.85 204.419 55.65 204.653 55.25C204.919 54.85 205.419 54.4667 206.153 54.1C206.886 53.7 207.969 53.5333 209.403 53.6C210.469 53.6333 211.219 53.8167 211.653 54.15C212.086 54.45 212.319 54.8 212.353 55.2C212.419 55.5667 212.386 55.9 212.253 56.2C212.153 56.4667 212.103 56.6 212.103 56.6C212.103 56.6 211.903 56.9667 211.503 57.7C211.103 58.4333 210.569 59.4167 209.903 60.65C209.236 61.85 208.486 63.2 207.653 64.7C206.853 66.1667 206.036 67.6667 205.203 69.2C204.369 70.7333 203.586 72.1833 202.853 73.55C202.119 74.8833 201.503 76.05 201.003 77.05C200.503 78.0167 200.169 78.6667 200.003 79C199.736 79.6 199.319 80.05 198.753 80.35C198.219 80.6167 197.653 80.8 197.053 80.9C196.486 81 196.003 81.0333 195.603 81C195.203 81 195.003 81 195.003 81ZM231.465 61.05C230.332 61.05 229.465 60.9167 228.865 60.65C228.265 60.35 227.832 60.0167 227.565 59.65C227.332 59.2833 227.198 58.95 227.165 58.65C227.132 58.3167 227.115 58.1167 227.115 58.05C227.115 57.8833 227.048 57.6167 226.915 57.25C226.815 56.85 226.482 56.65 225.915 56.65C224.982 56.65 224.148 56.9333 223.415 57.5C222.715 58.0667 222.332 58.9 222.265 60C222.198 61.1 222.482 62.05 223.115 62.85C223.748 63.65 224.998 64.0667 226.865 64.1C227.798 64.1 228.782 64.2333 229.815 64.5C230.848 64.7667 231.815 65.2 232.715 65.8C233.648 66.3667 234.382 67.15 234.915 68.15C235.482 69.1167 235.765 70.3333 235.765 71.8C235.732 74.7333 234.948 77 233.415 78.6C231.882 80.2 229.332 81 225.765 81C223.398 81 221.498 80.7167 220.065 80.15C218.632 79.55 217.582 78.85 216.915 78.05C216.282 77.25 215.948 76.5333 215.915 75.9C215.882 75.2667 215.915 74.65 216.015 74.05C216.148 73.45 216.498 72.9333 217.065 72.5C217.665 72.0667 218.615 71.8 219.915 71.7C221.248 71.6 222.198 71.7167 222.765 72.05C223.332 72.35 223.682 72.7 223.815 73.1C223.982 73.5 224.065 73.75 224.065 73.85C224.065 73.95 224.098 74.2 224.165 74.6C224.265 74.9667 224.432 75.3333 224.665 75.7C224.932 76.0333 225.298 76.2 225.765 76.2C226.465 76.2 227.065 75.9167 227.565 75.35C228.065 74.7833 228.382 73.8667 228.515 72.6C228.748 70.1 227.498 68.85 224.765 68.85C224.098 68.85 223.232 68.75 222.165 68.55C221.132 68.3167 220.098 67.9167 219.065 67.35C218.032 66.75 217.165 65.9167 216.465 64.85C215.765 63.7833 215.432 62.3833 215.465 60.65C215.498 58.9167 215.815 57.5 216.415 56.4C217.015 55.2667 217.798 54.4 218.765 53.8C219.765 53.1667 220.848 52.7167 222.015 52.45C223.215 52.1833 224.398 52.0333 225.565 52C227.132 51.9667 228.632 52.15 230.065 52.55C231.532 52.95 232.748 53.5667 233.715 54.4C234.715 55.2 235.282 56.25 235.415 57.55C235.515 58.5167 235.365 59.25 234.965 59.75C234.598 60.2167 234.132 60.55 233.565 60.75C233.032 60.9167 232.548 61.0167 232.115 61.05C231.682 61.05 231.465 61.05 231.465 61.05ZM239.069 55.65C239.069 55.65 239.035 55.5167 238.969 55.25C238.902 54.95 238.919 54.6 239.019 54.2C239.152 53.8 239.452 53.4333 239.919 53.1C240.419 52.7667 241.202 52.55 242.269 52.45C243.335 52.35 244.535 52.2667 245.869 52.2C247.235 52.1333 248.535 52.0667 249.769 52C251.035 51.9333 252.069 51.8833 252.869 51.85C253.669 51.8167 254.069 51.8 254.069 51.8C254.069 51.8 254.285 51.8167 254.719 51.85C255.185 51.85 255.719 51.9167 256.319 52.05C256.952 52.15 257.519 52.3667 258.019 52.7C258.519 53 258.819 53.45 258.919 54.05C259.019 54.65 258.902 55.1167 258.569 55.45C258.235 55.7833 257.835 56.0333 257.369 56.2C256.902 56.3333 256.485 56.4167 256.119 56.45C255.752 56.4833 255.569 56.5 255.569 56.5L247.569 56.95C247.569 56.95 247.619 57.1667 247.719 57.6C247.819 58.0333 247.919 58.5333 248.019 59.1C248.152 59.6333 248.235 60.1 248.269 60.5C248.302 60.8667 248.335 61.35 248.369 61.95C248.402 62.5167 248.435 63.0333 248.469 63.5C248.502 63.9333 248.519 64.15 248.519 64.15H252.219C252.219 64.15 252.402 64.1667 252.769 64.2C253.135 64.2 253.552 64.2667 254.019 64.4C254.519 64.5 254.952 64.6667 255.319 64.9C255.685 65.1333 255.885 65.4833 255.919 65.95C255.952 66.55 255.719 67 255.219 67.3C254.752 67.6 254.252 67.8 253.719 67.9C253.219 67.9667 252.902 68.0167 252.769 68.05C252.669 68.05 252.402 68.0667 251.969 68.1C251.535 68.1 251.052 68.1 250.519 68.1C250.019 68.1 249.569 68.1 249.169 68.1C248.769 68.1 248.569 68.1 248.569 68.1C248.569 68.1 248.569 68.35 248.569 68.85C248.602 69.3167 248.635 69.8667 248.669 70.5C248.702 71.1333 248.702 71.6833 248.669 72.15C248.669 72.5833 248.652 73.1167 248.619 73.75C248.585 74.35 248.552 74.8833 248.519 75.35C248.485 75.7833 248.469 76 248.469 76L255.219 75.75C255.219 75.75 255.435 75.75 255.869 75.75C256.302 75.7167 256.819 75.75 257.419 75.85C258.019 75.95 258.552 76.15 259.019 76.45C259.485 76.75 259.735 77.2 259.769 77.8C259.835 78.4 259.669 78.8833 259.269 79.25C258.869 79.6167 258.402 79.8833 257.869 80.05C257.335 80.2167 256.852 80.3333 256.419 80.4C256.019 80.4333 255.819 80.45 255.819 80.45L245.019 81C245.019 81 244.752 81 244.219 81C243.719 81.0333 243.135 81 242.469 80.9C241.802 80.7667 241.219 80.5167 240.719 80.15C240.219 79.75 239.985 79.15 240.019 78.35C240.085 77.2833 240.152 75.6167 240.219 73.35C240.285 71.05 240.252 68.3667 240.119 65.3C239.985 62.2333 239.635 59.0167 239.069 55.65ZM273.92 74C273.954 74 274.254 74 274.82 74C275.387 73.9667 276.087 73.95 276.92 73.95C277.754 73.9167 278.57 73.9 279.37 73.9C280.204 73.8667 280.904 73.85 281.47 73.85C282.037 73.8167 282.32 73.8 282.32 73.8C282.32 73.8 282.504 73.8 282.87 73.8C283.237 73.8 283.67 73.8667 284.17 74C284.67 74.1 285.104 74.3333 285.47 74.7C285.87 75.0667 286.087 75.6333 286.12 76.4C286.154 77.1333 285.937 77.7167 285.47 78.15C285.037 78.55 284.504 78.8333 283.87 79C283.27 79.1333 282.72 79.2167 282.22 79.25C281.754 79.2833 281.52 79.3 281.52 79.3C281.52 79.3 281.17 79.3333 280.47 79.4C279.804 79.4333 278.92 79.5167 277.82 79.65C276.72 79.7833 275.52 79.9667 274.22 80.2C272.92 80.4 271.67 80.6667 270.47 81C269.27 81.3333 268.27 81.45 267.47 81.35C266.704 81.2833 266.104 81.1167 265.67 80.85C265.237 80.55 264.92 80.25 264.72 79.95C264.554 79.6167 264.47 79.4 264.47 79.3C264.437 79.0667 264.504 78.7833 264.67 78.45C264.837 78.0833 265.154 77.8333 265.62 77.7C265.787 77.6667 265.87 77.2 265.87 76.3C265.87 75.3667 265.804 74.1833 265.67 72.75C265.57 71.2833 265.42 69.7 265.22 68C265.02 66.3 264.787 64.6167 264.52 62.95C264.287 61.2833 264.054 59.8 263.82 58.5C263.587 57.2 263.354 56.2333 263.12 55.6C262.787 54.6333 262.754 53.8833 263.02 53.35C263.287 52.8167 263.654 52.4333 264.12 52.2C264.62 51.9333 265.07 51.7667 265.47 51.7C265.904 51.6333 266.12 51.6 266.12 51.6C266.12 51.6 266.337 51.5833 266.77 51.55C267.237 51.4833 267.77 51.5167 268.37 51.65C269.004 51.75 269.587 52.0333 270.12 52.5C270.687 52.9333 271.087 53.6667 271.32 54.7C271.62 56.0667 271.97 57.6833 272.37 59.55C272.804 61.3833 273.17 63.5 273.47 65.9C273.804 68.3 273.954 71 273.92 74ZM299.286 74C299.319 74 299.619 74 300.186 74C300.752 73.9667 301.452 73.95 302.286 73.95C303.119 73.9167 303.936 73.9 304.736 73.9C305.569 73.8667 306.269 73.85 306.836 73.85C307.402 73.8167 307.686 73.8 307.686 73.8C307.686 73.8 307.869 73.8 308.236 73.8C308.602 73.8 309.036 73.8667 309.536 74C310.036 74.1 310.469 74.3333 310.836 74.7C311.236 75.0667 311.452 75.6333 311.486 76.4C311.519 77.1333 311.302 77.7167 310.836 78.15C310.402 78.55 309.869 78.8333 309.236 79C308.636 79.1333 308.086 79.2167 307.586 79.25C307.119 79.2833 306.886 79.3 306.886 79.3C306.886 79.3 306.536 79.3333 305.836 79.4C305.169 79.4333 304.286 79.5167 303.186 79.65C302.086 79.7833 300.886 79.9667 299.586 80.2C298.286 80.4 297.036 80.6667 295.836 81C294.636 81.3333 293.636 81.45 292.836 81.35C292.069 81.2833 291.469 81.1167 291.036 80.85C290.602 80.55 290.286 80.25 290.086 79.95C289.919 79.6167 289.836 79.4 289.836 79.3C289.802 79.0667 289.869 78.7833 290.036 78.45C290.202 78.0833 290.519 77.8333 290.986 77.7C291.152 77.6667 291.236 77.2 291.236 76.3C291.236 75.3667 291.169 74.1833 291.036 72.75C290.936 71.2833 290.786 69.7 290.586 68C290.386 66.3 290.152 64.6167 289.886 62.95C289.652 61.2833 289.419 59.8 289.186 58.5C288.952 57.2 288.719 56.2333 288.486 55.6C288.152 54.6333 288.119 53.8833 288.386 53.35C288.652 52.8167 289.019 52.4333 289.486 52.2C289.986 51.9333 290.436 51.7667 290.836 51.7C291.269 51.6333 291.486 51.6 291.486 51.6C291.486 51.6 291.702 51.5833 292.136 51.55C292.602 51.4833 293.136 51.5167 293.736 51.65C294.369 51.75 294.952 52.0333 295.486 52.5C296.052 52.9333 296.452 53.6667 296.686 54.7C296.986 56.0667 297.336 57.6833 297.736 59.55C298.169 61.3833 298.536 63.5 298.836 65.9C299.169 68.3 299.319 71 299.286 74Z" fill="#FFA3EB"/>
<path d="M725.25 61.05C724.117 61.05 723.25 60.9167 722.65 60.65C722.05 60.35 721.617 60.0167 721.35 59.65C721.117 59.2833 720.983 58.95 720.95 58.65C720.917 58.3167 720.9 58.1167 720.9 58.05C720.9 57.8833 720.833 57.6167 720.7 57.25C720.6 56.85 720.267 56.65 719.7 56.65C718.767 56.65 717.933 56.9333 717.2 57.5C716.5 58.0667 716.117 58.9 716.05 60C715.983 61.1 716.267 62.05 716.9 62.85C717.533 63.65 718.783 64.0667 720.65 64.1C721.583 64.1 722.567 64.2333 723.6 64.5C724.633 64.7667 725.6 65.2 726.5 65.8C727.433 66.3667 728.167 67.15 728.7 68.15C729.267 69.1167 729.55 70.3333 729.55 71.8C729.517 74.7333 728.733 77 727.2 78.6C725.667 80.2 723.117 81 719.55 81C717.183 81 715.283 80.7167 713.85 80.15C712.417 79.55 711.367 78.85 710.7 78.05C710.067 77.25 709.733 76.5333 709.7 75.9C709.667 75.2667 709.7 74.65 709.8 74.05C709.933 73.45 710.283 72.9333 710.85 72.5C711.45 72.0667 712.4 71.8 713.7 71.7C715.033 71.6 715.983 71.7167 716.55 72.05C717.117 72.35 717.467 72.7 717.6 73.1C717.767 73.5 717.85 73.75 717.85 73.85C717.85 73.95 717.883 74.2 717.95 74.6C718.05 74.9667 718.217 75.3333 718.45 75.7C718.717 76.0333 719.083 76.2 719.55 76.2C720.25 76.2 720.85 75.9167 721.35 75.35C721.85 74.7833 722.167 73.8667 722.3 72.6C722.533 70.1 721.283 68.85 718.55 68.85C717.883 68.85 717.017 68.75 715.95 68.55C714.917 68.3167 713.883 67.9167 712.85 67.35C711.817 66.75 710.95 65.9167 710.25 64.85C709.55 63.7833 709.217 62.3833 709.25 60.65C709.283 58.9167 709.6 57.5 710.2 56.4C710.8 55.2667 711.583 54.4 712.55 53.8C713.55 53.1667 714.633 52.7167 715.8 52.45C717 52.1833 718.183 52.0333 719.35 52C720.917 51.9667 722.417 52.15 723.85 52.55C725.317 52.95 726.533 53.5667 727.5 54.4C728.5 55.2 729.067 56.25 729.2 57.55C729.3 58.5167 729.15 59.25 728.75 59.75C728.383 60.2167 727.917 60.55 727.35 60.75C726.817 60.9167 726.333 61.0167 725.9 61.05C725.467 61.05 725.25 61.05 725.25 61.05ZM737.354 52.1C737.354 52.1 737.571 52.1333 738.004 52.2C738.437 52.2333 738.921 52.3833 739.454 52.65C740.021 52.8833 740.504 53.3167 740.904 53.95C741.304 54.55 741.471 55.4333 741.404 56.6C741.371 57.3667 741.321 58.4 741.254 59.7C741.221 60.9667 741.204 62.3667 741.204 63.9C741.204 65.4 741.237 66.9 741.304 68.4C741.404 69.9 741.554 71.2833 741.754 72.55C741.987 73.8167 742.287 74.8333 742.654 75.6C743.054 76.3333 743.537 76.6833 744.104 76.65C744.704 76.6167 745.154 76.2167 745.454 75.45C745.754 74.65 745.954 73.65 746.054 72.45C746.154 71.2167 746.187 69.9167 746.154 68.55C746.121 67.1833 746.054 65.8833 745.954 64.65C745.854 63.3833 745.754 62.35 745.654 61.55C745.587 60.7167 745.537 60.25 745.504 60.15C745.471 60.0167 745.421 59.7333 745.354 59.3C745.287 58.8667 745.321 58.4 745.454 57.9C745.587 57.4 745.921 56.95 746.454 56.55C747.021 56.15 747.904 55.9 749.104 55.8C750.304 55.7 751.237 55.85 751.904 56.25C752.571 56.65 753.037 57.1333 753.304 57.7C753.604 58.2667 753.771 58.7667 753.804 59.2C753.871 59.6333 753.904 59.85 753.904 59.85C753.904 59.85 753.954 60.2333 754.054 61C754.187 61.7667 754.287 62.7833 754.354 64.05C754.454 65.2833 754.454 66.65 754.354 68.15C754.287 69.65 754.071 71.1667 753.704 72.7C753.371 74.2 752.821 75.5833 752.054 76.85C751.287 78.0833 750.254 79.0833 748.954 79.85C747.654 80.6167 746.021 81 744.054 81C742.087 81 740.421 80.6 739.054 79.8C737.721 78.9667 736.621 77.8833 735.754 76.55C734.921 75.1833 734.271 73.6667 733.804 72C733.371 70.3333 733.071 68.6333 732.904 66.9C732.771 65.1333 732.704 63.4667 732.704 61.9C732.737 60.3333 732.787 58.9667 732.854 57.8C732.954 56.6333 733.021 55.8 733.054 55.3C733.121 54.4333 733.371 53.7833 733.804 53.35C734.237 52.8833 734.721 52.5667 735.254 52.4C735.821 52.2333 736.304 52.15 736.704 52.15C737.137 52.1167 737.354 52.1 737.354 52.1ZM762.543 81C761.276 81 760.359 80.8167 759.793 80.45C759.226 80.05 758.876 79.6667 758.743 79.3C758.609 78.9333 758.543 78.75 758.543 78.75C758.543 78.75 758.526 78.35 758.493 77.55C758.493 76.7167 758.476 75.6333 758.443 74.3C758.443 72.9667 758.426 71.5 758.393 69.9C758.359 68.3 758.326 66.7 758.293 65.1C758.293 63.5 758.276 62.0333 758.243 60.7C758.209 59.3667 758.176 58.3 758.143 57.5C758.143 56.6667 758.143 56.25 758.143 56.25C758.109 56.25 757.926 56.0833 757.593 55.75C757.293 55.4167 757.126 55.0667 757.093 54.7C757.093 54.4333 757.409 54.05 758.043 53.55C758.676 53.05 759.743 52.6333 761.243 52.3C762.776 51.9333 764.876 51.8667 767.543 52.1C769.943 52.3 771.826 52.7 773.193 53.3C774.593 53.8667 775.609 54.4833 776.243 55.15C776.876 55.7833 777.276 56.35 777.443 56.85C777.609 57.3167 777.693 57.55 777.693 57.55C777.693 57.55 777.709 57.6 777.743 57.7C777.809 57.8 777.859 58.1167 777.893 58.65C777.959 59.15 778.009 59.9833 778.043 61.15C778.076 62.3167 778.076 63.95 778.043 66.05C778.009 67.75 777.609 69.1 776.843 70.1C776.109 71.1 775.193 71.85 774.093 72.35C772.993 72.8167 771.893 73.1333 770.793 73.3C769.726 73.4333 768.826 73.5 768.093 73.5C767.359 73.4667 766.993 73.45 766.993 73.45C766.993 73.45 766.993 73.8167 766.993 74.55C767.026 75.25 767.026 76.4333 766.993 78.1C766.993 78.9333 766.759 79.5667 766.293 80C765.859 80.4 765.343 80.6667 764.743 80.8C764.176 80.9333 763.659 81 763.193 81C762.759 81 762.543 81 762.543 81ZM766.493 56.75L766.943 69.15C766.943 69.15 767.159 69.1333 767.593 69.1C768.026 69.0333 768.526 68.8667 769.093 68.6C769.659 68.3333 770.143 67.8833 770.543 67.25C770.976 66.5833 771.159 65.65 771.093 64.45C771.026 62.85 770.959 61.65 770.893 60.85C770.826 60.05 770.776 59.5333 770.743 59.3C770.743 59.0333 770.743 58.9 770.743 58.9C770.743 58.9 770.709 58.7667 770.643 58.5C770.609 58.2 770.476 57.8833 770.243 57.55C770.009 57.2167 769.593 56.9667 768.993 56.8C768.426 56.6 767.593 56.5833 766.493 56.75ZM786.589 81C785.323 81 784.406 80.8167 783.839 80.45C783.273 80.05 782.923 79.6667 782.789 79.3C782.656 78.9333 782.589 78.75 782.589 78.75C782.589 78.75 782.573 78.35 782.539 77.55C782.539 76.7167 782.523 75.6333 782.489 74.3C782.489 72.9667 782.473 71.5 782.439 69.9C782.406 68.3 782.373 66.7 782.339 65.1C782.339 63.5 782.323 62.0333 782.289 60.7C782.256 59.3667 782.223 58.3 782.189 57.5C782.189 56.6667 782.189 56.25 782.189 56.25C782.156 56.25 781.973 56.0833 781.639 55.75C781.339 55.4167 781.173 55.0667 781.139 54.7C781.139 54.4333 781.456 54.05 782.089 53.55C782.723 53.05 783.789 52.6333 785.289 52.3C786.823 51.9333 788.923 51.8667 791.589 52.1C793.989 52.3 795.873 52.7 797.239 53.3C798.639 53.8667 799.656 54.4833 800.289 55.15C800.923 55.7833 801.323 56.35 801.489 56.85C801.656 57.3167 801.739 57.55 801.739 57.55C801.739 57.55 801.756 57.6 801.789 57.7C801.856 57.8 801.906 58.1167 801.939 58.65C802.006 59.15 802.056 59.9833 802.089 61.15C802.123 62.3167 802.123 63.95 802.089 66.05C802.056 67.75 801.656 69.1 800.889 70.1C800.156 71.1 799.239 71.85 798.139 72.35C797.039 72.8167 795.939 73.1333 794.839 73.3C793.773 73.4333 792.873 73.5 792.139 73.5C791.406 73.4667 791.039 73.45 791.039 73.45C791.039 73.45 791.039 73.8167 791.039 74.55C791.073 75.25 791.073 76.4333 791.039 78.1C791.039 78.9333 790.806 79.5667 790.339 80C789.906 80.4 789.389 80.6667 788.789 80.8C788.223 80.9333 787.706 81 787.239 81C786.806 81 786.589 81 786.589 81ZM790.539 56.75L790.989 69.15C790.989 69.15 791.206 69.1333 791.639 69.1C792.073 69.0333 792.573 68.8667 793.139 68.6C793.706 68.3333 794.189 67.8833 794.589 67.25C795.023 66.5833 795.206 65.65 795.139 64.45C795.073 62.85 795.006 61.65 794.939 60.85C794.873 60.05 794.823 59.5333 794.789 59.3C794.789 59.0333 794.789 58.9 794.789 58.9C794.789 58.9 794.756 58.7667 794.689 58.5C794.656 58.2 794.523 57.8833 794.289 57.55C794.056 57.2167 793.639 56.9667 793.039 56.8C792.473 56.6 791.639 56.5833 790.539 56.75ZM816.336 74C816.37 74 816.67 74 817.236 74C817.803 73.9667 818.503 73.95 819.336 73.95C820.17 73.9167 820.986 73.9 821.786 73.9C822.62 73.8667 823.32 73.85 823.886 73.85C824.453 73.8167 824.736 73.8 824.736 73.8C824.736 73.8 824.92 73.8 825.286 73.8C825.653 73.8 826.086 73.8667 826.586 74C827.086 74.1 827.52 74.3333 827.886 74.7C828.286 75.0667 828.503 75.6333 828.536 76.4C828.57 77.1333 828.353 77.7167 827.886 78.15C827.453 78.55 826.92 78.8333 826.286 79C825.686 79.1333 825.136 79.2167 824.636 79.25C824.17 79.2833 823.936 79.3 823.936 79.3C823.936 79.3 823.586 79.3333 822.886 79.4C822.22 79.4333 821.336 79.5167 820.236 79.65C819.136 79.7833 817.936 79.9667 816.636 80.2C815.336 80.4 814.086 80.6667 812.886 81C811.686 81.3333 810.686 81.45 809.886 81.35C809.12 81.2833 808.52 81.1167 808.086 80.85C807.653 80.55 807.336 80.25 807.136 79.95C806.97 79.6167 806.886 79.4 806.886 79.3C806.853 79.0667 806.92 78.7833 807.086 78.45C807.253 78.0833 807.57 77.8333 808.036 77.7C808.203 77.6667 808.286 77.2 808.286 76.3C808.286 75.3667 808.22 74.1833 808.086 72.75C807.986 71.2833 807.836 69.7 807.636 68C807.436 66.3 807.203 64.6167 806.936 62.95C806.703 61.2833 806.47 59.8 806.236 58.5C806.003 57.2 805.77 56.2333 805.536 55.6C805.203 54.6333 805.17 53.8833 805.436 53.35C805.703 52.8167 806.07 52.4333 806.536 52.2C807.036 51.9333 807.486 51.7667 807.886 51.7C808.32 51.6333 808.536 51.6 808.536 51.6C808.536 51.6 808.753 51.5833 809.186 51.55C809.653 51.4833 810.186 51.5167 810.786 51.65C811.42 51.75 812.003 52.0333 812.536 52.5C813.103 52.9333 813.503 53.6667 813.736 54.7C814.036 56.0667 814.386 57.6833 814.786 59.55C815.22 61.3833 815.586 63.5 815.886 65.9C816.22 68.3 816.37 71 816.336 74ZM828.771 51.65C828.771 51.65 829.054 51.6167 829.621 51.55C830.188 51.4833 830.854 51.5667 831.621 51.8C832.421 52.0333 833.104 52.6 833.671 53.5C834.038 54.0667 834.404 54.75 834.771 55.55C835.171 56.3167 835.521 57.0833 835.821 57.85C836.154 58.6167 836.421 59.25 836.621 59.75C836.821 60.25 836.921 60.5 836.921 60.5L839.921 53.2C839.921 53.2 840.038 53.05 840.271 52.75C840.538 52.45 840.954 52.1667 841.521 51.9C842.121 51.6333 842.938 51.5333 843.971 51.6C847.004 51.8 848.121 52.75 847.321 54.45C847.154 54.7833 846.854 55.4 846.421 56.3C845.988 57.1667 845.488 58.15 844.921 59.25C844.388 60.3167 843.854 61.3667 843.321 62.4C842.821 63.4333 842.404 64.2833 842.071 64.95C841.738 65.6167 841.571 65.95 841.571 65.95L841.821 78.15C841.821 78.15 841.821 78.3 841.821 78.6C841.854 78.8667 841.788 79.2 841.621 79.6C841.454 79.9667 841.104 80.3 840.571 80.6C840.038 80.8667 839.221 81 838.121 81C836.654 81 835.571 80.8 834.871 80.4C834.204 80 833.788 79.5667 833.621 79.1C833.454 78.6 833.371 78.2333 833.371 78C833.371 77.8667 833.354 77.3667 833.321 76.5C833.321 75.6333 833.321 74.6167 833.321 73.45C833.321 72.2833 833.304 71.1167 833.271 69.95C833.271 68.7833 833.254 67.8167 833.221 67.05C833.221 66.2833 833.221 65.9 833.221 65.9L826.571 55.3C826.571 55.3 826.471 55.15 826.271 54.85C826.071 54.55 825.938 54.2 825.871 53.8C825.838 53.3667 826.021 52.95 826.421 52.55C826.821 52.15 827.604 51.85 828.771 51.65Z" fill="#FFA3EB"/>
<path d="M126.252 133.3C126.252 133.3 126.602 133.317 127.302 133.35C128.002 133.383 128.869 133.567 129.902 133.9C130.936 134.2 131.986 134.783 133.052 135.65C134.119 136.483 135.019 137.7 135.752 139.3C136.519 140.9 136.952 143.017 137.052 145.65C137.186 149.817 136.902 153.1 136.202 155.5C135.502 157.867 134.386 159.55 132.852 160.55C131.319 161.517 129.369 162 127.002 162C123.469 162 120.719 160.783 118.752 158.35C116.786 155.883 115.802 151.983 115.802 146.65C115.802 143.983 116.086 141.783 116.652 140.05C117.219 138.317 117.986 136.967 118.952 136C119.919 135.033 121.019 134.35 122.252 133.95C123.519 133.517 124.852 133.3 126.252 133.3ZM126.602 137.3C126.369 137.367 126.102 137.45 125.802 137.55C125.536 137.65 125.269 137.967 125.002 138.5C124.769 139.033 124.552 139.933 124.352 141.2C124.186 142.467 124.069 144.283 124.002 146.65C123.936 149.35 123.986 151.483 124.152 153.05C124.319 154.583 124.569 155.683 124.902 156.35C125.269 156.983 125.702 157.317 126.202 157.35C126.602 157.383 126.969 157.283 127.302 157.05C127.669 156.817 127.986 156.333 128.252 155.6C128.552 154.867 128.769 153.783 128.902 152.35C129.069 150.917 129.152 149.017 129.152 146.65C129.152 144.283 129.019 142.467 128.752 141.2C128.519 139.9 128.219 138.983 127.852 138.45C127.519 137.883 127.219 137.55 126.952 137.45C126.719 137.35 126.602 137.3 126.602 137.3ZM149.35 137.8C149.35 139 148.884 139.883 147.95 140.45C147.05 140.983 146.017 141.283 144.85 141.35C143.984 141.35 143.234 141.2 142.6 140.9C142 140.6 141.467 140.233 141 139.8C140.534 139.333 140.3 138.65 140.3 137.75C140.3 137.083 140.467 136.517 140.8 136.05C141.234 135.483 141.834 135.05 142.6 134.75C143.367 134.45 144.15 134.3 144.95 134.3C145.617 134.3 146.25 134.4 146.85 134.6C147.45 134.8 147.984 135.133 148.45 135.6C148.65 135.867 148.85 136.15 149.05 136.45C149.25 136.75 149.35 137.117 149.35 137.55C149.35 137.583 149.35 137.617 149.35 137.65C149.35 137.683 149.35 137.733 149.35 137.8ZM155.95 145.4L154.55 148C153.717 149.567 152.867 151.133 152 152.7C151.167 154.267 150.317 155.817 149.45 157.35C149.25 157.783 149.017 158.2 148.75 158.6C148.517 159 148.284 159.417 148.05 159.85C147.917 160.183 147.767 160.483 147.6 160.75C147.467 160.983 147.234 161.167 146.9 161.3C146 161.733 144.917 161.95 143.65 161.95C142.884 161.95 142.15 161.833 141.45 161.6C140.784 161.333 140.334 160.917 140.1 160.35C140 160.15 140.017 159.9 140.15 159.6C140.317 159.3 140.45 159.067 140.55 158.9C141.25 157.6 141.95 156.333 142.65 155.1C143.35 153.867 144.034 152.6 144.7 151.3L146.1 148.7C146.534 147.867 147 147.033 147.5 146.2C148 145.333 148.45 144.467 148.85 143.6C149.284 142.8 149.734 141.983 150.2 141.15L152.2 137.55C152.334 137.317 152.45 137.083 152.55 136.85L152.95 136.1C153.117 135.767 153.367 135.533 153.7 135.4C154.034 135.233 154.384 135.1 154.75 135C155.684 134.733 156.65 134.667 157.65 134.8C158.684 134.933 159.5 135.217 160.1 135.65C160.3 135.783 160.45 135.983 160.55 136.25C160.65 136.517 160.617 136.8 160.45 137.1L160.1 137.8C159.4 139.1 158.7 140.367 158 141.6C157.3 142.833 156.617 144.1 155.95 145.4ZM145.45 138.05V137.5C145.45 137.233 145.384 137 145.25 136.8C145.117 136.6 144.967 136.417 144.8 136.25C144.4 136.65 144.2 137.167 144.2 137.8C144.2 138.3 144.35 138.75 144.65 139.15C144.684 139.183 144.717 139.217 144.75 139.25C144.784 139.25 144.8 139.267 144.8 139.3C144.834 139.267 144.867 139.25 144.9 139.25C144.934 139.217 144.967 139.183 145 139.15C145.134 138.983 145.234 138.817 145.3 138.65C145.4 138.483 145.45 138.283 145.45 138.05ZM152.55 156.4C153.017 155.967 153.567 155.65 154.2 155.45C154.834 155.217 155.484 155.1 156.15 155.1C157.284 155.1 158.317 155.4 159.25 156C160.217 156.6 160.7 157.5 160.7 158.7C160.7 159.9 160.234 160.783 159.3 161.35C158.367 161.883 157.334 162.167 156.2 162.2C156.134 162.2 156.05 162.2 155.95 162.2C155.35 162.2 154.767 162.1 154.2 161.9C153.667 161.667 153.2 161.417 152.8 161.15C152.067 160.483 151.7 159.633 151.7 158.6C151.7 157.733 151.984 157 152.55 156.4ZM156.8 158.95V158.4C156.8 158.133 156.734 157.9 156.6 157.7C156.5 157.5 156.367 157.317 156.2 157.15C156.134 157.217 156.067 157.267 156 157.3C155.7 157.7 155.55 158.183 155.55 158.75C155.55 159.417 155.767 159.9 156.2 160.2C156.234 160.133 156.284 160.083 156.35 160.05C156.484 159.883 156.584 159.717 156.65 159.55C156.75 159.383 156.8 159.183 156.8 158.95Z" fill="#FFA3EB"/>
<path d="M423.47 157.96C423.47 157.96 423.54 157.96 423.68 157.96C423.82 157.95 423.985 157.975 424.175 158.035C424.365 158.085 424.535 158.19 424.685 158.35C424.845 158.5 424.94 158.735 424.97 159.055C424.99 159.305 425.03 159.63 425.09 160.03C425.15 160.42 425.215 160.83 425.285 161.26C425.355 161.69 425.42 162.095 425.48 162.475C425.55 162.845 425.605 163.15 425.645 163.39C425.695 163.63 425.72 163.75 425.72 163.75L426.365 161.35C426.365 161.35 426.39 161.28 426.44 161.14C426.49 160.99 426.58 160.845 426.71 160.705C426.85 160.565 427.055 160.495 427.325 160.495C427.595 160.495 427.8 160.55 427.94 160.66C428.08 160.76 428.18 160.885 428.24 161.035C428.31 161.185 428.365 161.33 428.405 161.47C428.435 161.57 428.48 161.74 428.54 161.98C428.61 162.21 428.675 162.455 428.735 162.715C428.805 162.975 428.865 163.195 428.915 163.375C428.965 163.555 428.99 163.645 428.99 163.645L429.125 162.4L429.755 157.99C429.755 157.99 429.785 157.925 429.845 157.795C429.915 157.655 430.045 157.52 430.235 157.39C430.435 157.26 430.73 157.21 431.12 157.24C431.71 157.28 432.07 157.4 432.2 157.6C432.34 157.8 432.36 158.045 432.26 158.335C432.21 158.475 432.135 158.78 432.035 159.25C431.935 159.71 431.82 160.265 431.69 160.915C431.56 161.565 431.435 162.25 431.315 162.97C431.195 163.68 431.09 164.355 431 164.995C430.96 165.325 430.87 165.58 430.73 165.76C430.6 165.93 430.46 166.05 430.31 166.12C430.16 166.19 430.03 166.23 429.92 166.24C429.81 166.25 429.755 166.255 429.755 166.255C429.755 166.255 429.69 166.255 429.56 166.255C429.43 166.265 429.27 166.245 429.08 166.195C428.9 166.145 428.72 166.04 428.54 165.88C428.37 165.72 428.235 165.47 428.135 165.13C427.945 164.45 427.78 163.88 427.64 163.42C427.5 162.96 427.43 162.73 427.43 162.73L426.59 165.28C426.59 165.28 426.56 165.34 426.5 165.46C426.44 165.58 426.32 165.7 426.14 165.82C425.97 165.94 425.715 166 425.375 166C424.865 166 424.51 165.92 424.31 165.76C424.12 165.59 423.97 165.32 423.86 164.95C423.83 164.82 423.77 164.59 423.68 164.26C423.59 163.92 423.49 163.525 423.38 163.075C423.27 162.625 423.155 162.165 423.035 161.695C422.915 161.215 422.805 160.775 422.705 160.375C422.605 159.965 422.52 159.635 422.45 159.385C422.39 159.125 422.36 158.995 422.36 158.995C422.36 158.995 422.35 158.95 422.33 158.86C422.31 158.77 422.32 158.665 422.36 158.545C422.4 158.415 422.5 158.295 422.66 158.185C422.83 158.075 423.1 158 423.47 157.96ZM440.193 166C439.813 166 439.538 165.945 439.368 165.835C439.198 165.715 439.093 165.6 439.053 165.49C439.013 165.38 438.993 165.325 438.993 165.325C438.993 165.325 438.988 165.205 438.978 164.965C438.978 164.715 438.973 164.39 438.963 163.99C438.963 163.59 438.958 163.15 438.948 162.67C438.938 162.19 438.928 161.71 438.918 161.23C438.918 160.75 438.913 160.31 438.903 159.91C438.893 159.51 438.883 159.19 438.873 158.95C438.873 158.7 438.873 158.575 438.873 158.575C438.863 158.575 438.808 158.525 438.708 158.425C438.618 158.325 438.568 158.22 438.558 158.11C438.558 158.03 438.653 157.915 438.843 157.765C439.033 157.615 439.353 157.49 439.803 157.39C440.263 157.28 440.893 157.26 441.693 157.33C442.413 157.39 442.978 157.51 443.388 157.69C443.808 157.86 444.113 158.045 444.303 158.245C444.493 158.435 444.613 158.605 444.663 158.755C444.713 158.895 444.738 158.965 444.738 158.965C444.738 158.965 444.743 158.98 444.753 159.01C444.773 159.04 444.788 159.135 444.798 159.295C444.818 159.445 444.833 159.695 444.843 160.045C444.853 160.395 444.853 160.885 444.843 161.515C444.833 162.025 444.713 162.43 444.483 162.73C444.263 163.03 443.988 163.255 443.658 163.405C443.328 163.545 442.998 163.64 442.668 163.69C442.348 163.73 442.078 163.75 441.858 163.75C441.638 163.74 441.528 163.735 441.528 163.735C441.528 163.735 441.528 163.845 441.528 164.065C441.538 164.275 441.538 164.63 441.528 165.13C441.528 165.38 441.458 165.57 441.318 165.7C441.188 165.82 441.033 165.9 440.853 165.94C440.683 165.98 440.528 166 440.388 166C440.258 166 440.193 166 440.193 166ZM441.378 158.725L441.513 162.445C441.513 162.445 441.578 162.44 441.708 162.43C441.838 162.41 441.988 162.36 442.158 162.28C442.328 162.2 442.473 162.065 442.593 161.875C442.723 161.675 442.778 161.395 442.758 161.035C442.738 160.555 442.718 160.195 442.698 159.955C442.678 159.715 442.663 159.56 442.653 159.49C442.653 159.41 442.653 159.37 442.653 159.37C442.653 159.37 442.643 159.33 442.623 159.25C442.613 159.16 442.573 159.065 442.503 158.965C442.433 158.865 442.308 158.79 442.128 158.74C441.958 158.68 441.708 158.675 441.378 158.725ZM451.067 158.395C451.067 158.395 451.057 158.355 451.037 158.275C451.017 158.185 451.022 158.08 451.052 157.96C451.092 157.84 451.182 157.73 451.322 157.63C451.472 157.53 451.707 157.465 452.027 157.435C452.347 157.405 452.707 157.38 453.107 157.36C453.517 157.34 453.907 157.32 454.277 157.3C454.657 157.28 454.967 157.265 455.207 157.255C455.447 157.245 455.567 157.24 455.567 157.24C455.567 157.24 455.632 157.245 455.762 157.255C455.902 157.255 456.062 157.275 456.242 157.315C456.432 157.345 456.602 157.41 456.752 157.51C456.902 157.6 456.992 157.735 457.022 157.915C457.052 158.095 457.017 158.235 456.917 158.335C456.817 158.435 456.697 158.51 456.557 158.56C456.417 158.6 456.292 158.625 456.182 158.635C456.072 158.645 456.017 158.65 456.017 158.65L453.617 158.785C453.617 158.785 453.632 158.85 453.662 158.98C453.692 159.11 453.722 159.26 453.752 159.43C453.792 159.59 453.817 159.73 453.827 159.85C453.837 159.96 453.847 160.105 453.857 160.285C453.867 160.455 453.877 160.61 453.887 160.75C453.897 160.88 453.902 160.945 453.902 160.945H455.012C455.012 160.945 455.067 160.95 455.177 160.96C455.287 160.96 455.412 160.98 455.552 161.02C455.702 161.05 455.832 161.1 455.942 161.17C456.052 161.24 456.112 161.345 456.122 161.485C456.132 161.665 456.062 161.8 455.912 161.89C455.772 161.98 455.622 162.04 455.462 162.07C455.312 162.09 455.217 162.105 455.177 162.115C455.147 162.115 455.067 162.12 454.937 162.13C454.807 162.13 454.662 162.13 454.502 162.13C454.352 162.13 454.217 162.13 454.097 162.13C453.977 162.13 453.917 162.13 453.917 162.13C453.917 162.13 453.917 162.205 453.917 162.355C453.927 162.495 453.937 162.66 453.947 162.85C453.957 163.04 453.957 163.205 453.947 163.345C453.947 163.475 453.942 163.635 453.932 163.825C453.922 164.005 453.912 164.165 453.902 164.305C453.892 164.435 453.887 164.5 453.887 164.5L455.912 164.425C455.912 164.425 455.977 164.425 456.107 164.425C456.237 164.415 456.392 164.425 456.572 164.455C456.752 164.485 456.912 164.545 457.052 164.635C457.192 164.725 457.267 164.86 457.277 165.04C457.297 165.22 457.247 165.365 457.127 165.475C457.007 165.585 456.867 165.665 456.707 165.715C456.547 165.765 456.402 165.8 456.272 165.82C456.152 165.83 456.092 165.835 456.092 165.835L452.852 166C452.852 166 452.772 166 452.612 166C452.462 166.01 452.287 166 452.087 165.97C451.887 165.93 451.712 165.855 451.562 165.745C451.412 165.625 451.342 165.445 451.352 165.205C451.372 164.885 451.392 164.385 451.412 163.705C451.432 163.015 451.422 162.21 451.382 161.29C451.342 160.37 451.237 159.405 451.067 158.395ZM465.062 166C464.682 166 464.407 165.945 464.237 165.835C464.067 165.715 463.962 165.6 463.922 165.49C463.882 165.38 463.862 165.325 463.862 165.325C463.862 165.325 463.857 165.205 463.847 164.965C463.847 164.715 463.842 164.39 463.832 163.99C463.832 163.59 463.827 163.15 463.817 162.67C463.807 162.19 463.797 161.71 463.787 161.23C463.787 160.75 463.782 160.31 463.772 159.91C463.762 159.51 463.752 159.19 463.742 158.95C463.742 158.7 463.742 158.575 463.742 158.575C463.732 158.575 463.677 158.525 463.577 158.425C463.487 158.325 463.437 158.22 463.427 158.11C463.427 158.03 463.522 157.915 463.712 157.765C463.902 157.615 464.222 157.49 464.672 157.39C465.132 157.28 465.762 157.26 466.562 157.33C467.282 157.39 467.847 157.51 468.257 157.69C468.677 157.86 468.982 158.045 469.172 158.245C469.362 158.435 469.482 158.605 469.532 158.755C469.582 158.895 469.607 158.965 469.607 158.965C469.607 158.965 469.612 158.98 469.622 159.01C469.642 159.04 469.657 159.135 469.667 159.295C469.687 159.445 469.702 159.695 469.712 160.045C469.722 160.395 469.722 160.885 469.712 161.515C469.702 162.025 469.582 162.43 469.352 162.73C469.132 163.03 468.857 163.255 468.527 163.405C468.197 163.545 467.867 163.64 467.537 163.69C467.217 163.73 466.947 163.75 466.727 163.75C466.507 163.74 466.397 163.735 466.397 163.735C466.397 163.735 466.397 163.845 466.397 164.065C466.407 164.275 466.407 164.63 466.397 165.13C466.397 165.38 466.327 165.57 466.187 165.7C466.057 165.82 465.902 165.9 465.722 165.94C465.552 165.98 465.397 166 465.257 166C465.127 166 465.062 166 465.062 166ZM466.247 158.725L466.382 162.445C466.382 162.445 466.447 162.44 466.577 162.43C466.707 162.41 466.857 162.36 467.027 162.28C467.197 162.2 467.342 162.065 467.462 161.875C467.592 161.675 467.647 161.395 467.627 161.035C467.607 160.555 467.587 160.195 467.567 159.955C467.547 159.715 467.532 159.56 467.522 159.49C467.522 159.41 467.522 159.37 467.522 159.37C467.522 159.37 467.512 159.33 467.492 159.25C467.482 159.16 467.442 159.065 467.372 158.965C467.302 158.865 467.177 158.79 466.997 158.74C466.827 158.68 466.577 158.675 466.247 158.725ZM475.936 158.395C475.936 158.395 475.926 158.355 475.906 158.275C475.886 158.185 475.891 158.08 475.921 157.96C475.961 157.84 476.051 157.73 476.191 157.63C476.341 157.53 476.576 157.465 476.896 157.435C477.216 157.405 477.576 157.38 477.976 157.36C478.386 157.34 478.776 157.32 479.146 157.3C479.526 157.28 479.836 157.265 480.076 157.255C480.316 157.245 480.436 157.24 480.436 157.24C480.436 157.24 480.501 157.245 480.631 157.255C480.771 157.255 480.931 157.275 481.111 157.315C481.301 157.345 481.471 157.41 481.621 157.51C481.771 157.6 481.861 157.735 481.891 157.915C481.921 158.095 481.886 158.235 481.786 158.335C481.686 158.435 481.566 158.51 481.426 158.56C481.286 158.6 481.161 158.625 481.051 158.635C480.941 158.645 480.886 158.65 480.886 158.65L478.486 158.785C478.486 158.785 478.501 158.85 478.531 158.98C478.561 159.11 478.591 159.26 478.621 159.43C478.661 159.59 478.686 159.73 478.696 159.85C478.706 159.96 478.716 160.105 478.726 160.285C478.736 160.455 478.746 160.61 478.756 160.75C478.766 160.88 478.771 160.945 478.771 160.945H479.881C479.881 160.945 479.936 160.95 480.046 160.96C480.156 160.96 480.281 160.98 480.421 161.02C480.571 161.05 480.701 161.1 480.811 161.17C480.921 161.24 480.981 161.345 480.991 161.485C481.001 161.665 480.931 161.8 480.781 161.89C480.641 161.98 480.491 162.04 480.331 162.07C480.181 162.09 480.086 162.105 480.046 162.115C480.016 162.115 479.936 162.12 479.806 162.13C479.676 162.13 479.531 162.13 479.371 162.13C479.221 162.13 479.086 162.13 478.966 162.13C478.846 162.13 478.786 162.13 478.786 162.13C478.786 162.13 478.786 162.205 478.786 162.355C478.796 162.495 478.806 162.66 478.816 162.85C478.826 163.04 478.826 163.205 478.816 163.345C478.816 163.475 478.811 163.635 478.801 163.825C478.791 164.005 478.781 164.165 478.771 164.305C478.761 164.435 478.756 164.5 478.756 164.5L480.781 164.425C480.781 164.425 480.846 164.425 480.976 164.425C481.106 164.415 481.261 164.425 481.441 164.455C481.621 164.485 481.781 164.545 481.921 164.635C482.061 164.725 482.136 164.86 482.146 165.04C482.166 165.22 482.116 165.365 481.996 165.475C481.876 165.585 481.736 165.665 481.576 165.715C481.416 165.765 481.271 165.8 481.141 165.82C481.021 165.83 480.961 165.835 480.961 165.835L477.721 166C477.721 166 477.641 166 477.481 166C477.331 166.01 477.156 166 476.956 165.97C476.756 165.93 476.581 165.855 476.431 165.745C476.281 165.625 476.211 165.445 476.221 165.205C476.241 164.885 476.261 164.385 476.281 163.705C476.301 163.015 476.291 162.21 476.251 161.29C476.211 160.37 476.106 159.405 475.936 158.395ZM499.033 160.435C499.003 160.435 498.923 160.435 498.793 160.435C498.663 160.435 498.518 160.405 498.358 160.345C498.198 160.285 498.063 160.175 497.953 160.015C497.843 159.845 497.793 159.595 497.803 159.265C497.823 158.605 498.083 158.095 498.583 157.735C499.083 157.375 499.733 157.2 500.533 157.21C500.933 157.21 501.328 157.25 501.718 157.33C502.118 157.4 502.478 157.52 502.798 157.69C503.118 157.86 503.373 158.095 503.563 158.395C503.763 158.685 503.863 159.06 503.863 159.52C503.863 159.89 503.768 160.29 503.578 160.72C503.388 161.14 503.153 161.56 502.873 161.98C502.593 162.4 502.308 162.785 502.018 163.135C501.738 163.475 501.498 163.75 501.298 163.96C501.108 164.17 501.008 164.275 500.998 164.275C501.008 164.275 501.098 164.265 501.268 164.245C501.438 164.215 501.633 164.185 501.853 164.155C502.073 164.125 502.268 164.1 502.438 164.08C502.608 164.05 502.693 164.035 502.693 164.035C502.693 164.035 502.748 164.035 502.858 164.035C502.978 164.035 503.113 164.05 503.263 164.08C503.423 164.1 503.568 164.15 503.698 164.23C503.828 164.31 503.903 164.435 503.923 164.605C503.973 164.945 503.923 165.17 503.773 165.28C503.633 165.38 503.448 165.45 503.218 165.49C503.128 165.5 502.933 165.525 502.633 165.565C502.343 165.605 502.003 165.65 501.613 165.7C501.233 165.75 500.858 165.8 500.488 165.85C500.128 165.89 499.828 165.925 499.588 165.955C499.348 165.985 499.228 166 499.228 166C499.228 166 499.148 166 498.988 166C498.838 165.99 498.673 165.96 498.493 165.91C498.323 165.86 498.208 165.77 498.148 165.64C498.058 165.44 498.023 165.28 498.043 165.16C498.073 165.03 498.213 164.825 498.463 164.545C498.563 164.435 498.723 164.25 498.943 163.99C499.163 163.72 499.403 163.41 499.663 163.06C499.933 162.7 500.193 162.325 500.443 161.935C500.693 161.535 500.898 161.15 501.058 160.78C501.218 160.4 501.303 160.06 501.313 159.76C501.323 159.26 501.293 158.915 501.223 158.725C501.153 158.535 501.073 158.43 500.983 158.41C500.903 158.38 500.848 158.365 500.818 158.365C500.788 158.365 500.718 158.385 500.608 158.425C500.498 158.455 500.388 158.52 500.278 158.62C500.178 158.71 500.128 158.855 500.128 159.055C500.128 159.245 500.128 159.44 500.128 159.64C500.128 159.83 500.053 159.995 499.903 160.135C499.763 160.275 499.473 160.375 499.033 160.435ZM513.254 157.39C513.254 157.39 513.359 157.395 513.569 157.405C513.779 157.415 514.039 157.47 514.349 157.57C514.659 157.66 514.974 157.835 515.294 158.095C515.614 158.345 515.884 158.71 516.104 159.19C516.334 159.67 516.464 160.305 516.494 161.095C516.534 162.345 516.449 163.33 516.239 164.05C516.029 164.76 515.694 165.265 515.234 165.565C514.774 165.855 514.189 166 513.479 166C512.419 166 511.594 165.635 511.004 164.905C510.414 164.165 510.119 162.995 510.119 161.395C510.119 160.595 510.204 159.935 510.374 159.415C510.544 158.895 510.774 158.49 511.064 158.2C511.354 157.91 511.684 157.705 512.054 157.585C512.434 157.455 512.834 157.39 513.254 157.39ZM513.359 158.59C513.289 158.61 513.209 158.635 513.119 158.665C513.039 158.695 512.959 158.79 512.879 158.95C512.809 159.11 512.744 159.38 512.684 159.76C512.634 160.14 512.599 160.685 512.579 161.395C512.559 162.205 512.574 162.845 512.624 163.315C512.674 163.775 512.749 164.105 512.849 164.305C512.959 164.495 513.089 164.595 513.239 164.605C513.359 164.615 513.469 164.585 513.569 164.515C513.679 164.445 513.774 164.3 513.854 164.08C513.944 163.86 514.009 163.535 514.049 163.105C514.099 162.675 514.124 162.105 514.124 161.395C514.124 160.685 514.084 160.14 514.004 159.76C513.934 159.37 513.844 159.095 513.734 158.935C513.634 158.765 513.544 158.665 513.464 158.635C513.394 158.605 513.359 158.59 513.359 158.59ZM523.873 160.435C523.843 160.435 523.763 160.435 523.633 160.435C523.503 160.435 523.358 160.405 523.198 160.345C523.038 160.285 522.903 160.175 522.793 160.015C522.683 159.845 522.633 159.595 522.643 159.265C522.663 158.605 522.923 158.095 523.423 157.735C523.923 157.375 524.573 157.2 525.373 157.21C525.773 157.21 526.168 157.25 526.558 157.33C526.958 157.4 527.318 157.52 527.638 157.69C527.958 157.86 528.213 158.095 528.403 158.395C528.603 158.685 528.703 159.06 528.703 159.52C528.703 159.89 528.608 160.29 528.418 160.72C528.228 161.14 527.993 161.56 527.713 161.98C527.433 162.4 527.148 162.785 526.858 163.135C526.578 163.475 526.338 163.75 526.138 163.96C525.948 164.17 525.848 164.275 525.838 164.275C525.848 164.275 525.938 164.265 526.108 164.245C526.278 164.215 526.473 164.185 526.693 164.155C526.913 164.125 527.108 164.1 527.278 164.08C527.448 164.05 527.533 164.035 527.533 164.035C527.533 164.035 527.588 164.035 527.698 164.035C527.818 164.035 527.953 164.05 528.103 164.08C528.263 164.1 528.408 164.15 528.538 164.23C528.668 164.31 528.743 164.435 528.763 164.605C528.813 164.945 528.763 165.17 528.613 165.28C528.473 165.38 528.288 165.45 528.058 165.49C527.968 165.5 527.773 165.525 527.473 165.565C527.183 165.605 526.843 165.65 526.453 165.7C526.073 165.75 525.698 165.8 525.328 165.85C524.968 165.89 524.668 165.925 524.428 165.955C524.188 165.985 524.068 166 524.068 166C524.068 166 523.988 166 523.828 166C523.678 165.99 523.513 165.96 523.333 165.91C523.163 165.86 523.048 165.77 522.988 165.64C522.898 165.44 522.863 165.28 522.883 165.16C522.913 165.03 523.053 164.825 523.303 164.545C523.403 164.435 523.563 164.25 523.783 163.99C524.003 163.72 524.243 163.41 524.503 163.06C524.773 162.7 525.033 162.325 525.283 161.935C525.533 161.535 525.738 161.15 525.898 160.78C526.058 160.4 526.143 160.06 526.153 159.76C526.163 159.26 526.133 158.915 526.063 158.725C525.993 158.535 525.913 158.43 525.823 158.41C525.743 158.38 525.688 158.365 525.658 158.365C525.628 158.365 525.558 158.385 525.448 158.425C525.338 158.455 525.228 158.52 525.118 158.62C525.018 158.71 524.968 158.855 524.968 159.055C524.968 159.245 524.968 159.44 524.968 159.64C524.968 159.83 524.893 159.995 524.743 160.135C524.603 160.275 524.313 160.375 523.873 160.435ZM535.244 158.2C535.244 158.2 535.249 158.155 535.259 158.065C535.279 157.975 535.319 157.875 535.379 157.765C535.449 157.645 535.564 157.545 535.724 157.465C535.884 157.375 536.109 157.335 536.399 157.345C536.789 157.355 537.054 157.42 537.194 157.54C537.344 157.66 537.424 157.785 537.434 157.915C537.444 158.035 537.449 158.12 537.449 158.17C537.449 158.2 537.434 158.35 537.404 158.62C537.384 158.88 537.354 159.2 537.314 159.58C537.274 159.95 537.229 160.32 537.179 160.69C537.139 161.06 537.104 161.37 537.074 161.62C537.054 161.87 537.044 161.995 537.044 161.995L538.454 161.89L538.319 159.325C538.319 159.325 538.319 159.29 538.319 159.22C538.329 159.15 538.364 159.07 538.424 158.98C538.494 158.88 538.609 158.79 538.769 158.71C538.929 158.63 539.164 158.58 539.474 158.56C539.784 158.54 540.029 158.565 540.209 158.635C540.389 158.705 540.524 158.79 540.614 158.89C540.704 158.98 540.759 159.065 540.779 159.145C540.809 159.225 540.824 159.265 540.824 159.265L541.139 165.145C541.139 165.145 541.134 165.19 541.124 165.28C541.124 165.36 541.089 165.46 541.019 165.58C540.959 165.69 540.844 165.79 540.674 165.88C540.504 165.96 540.254 166 539.924 166C539.594 166 539.339 165.96 539.159 165.88C538.979 165.8 538.849 165.705 538.769 165.595C538.699 165.485 538.654 165.39 538.634 165.31C538.624 165.23 538.619 165.19 538.619 165.19L538.514 163.18L536.594 163.405C536.594 163.405 536.514 163.415 536.354 163.435C536.194 163.445 536.009 163.435 535.799 163.405C535.599 163.375 535.419 163.295 535.259 163.165C535.109 163.035 535.039 162.83 535.049 162.55C535.069 161.99 535.094 161.34 535.124 160.6C535.164 159.85 535.204 159.05 535.244 158.2Z" fill="#FFA3EB"/>
<path d="M814.05 132.8C814.75 132.8 815.417 132.833 816.05 132.9C816.717 132.933 817.267 133.133 817.7 133.5C818.133 133.867 818.383 134.533 818.45 135.5C818.483 135.967 818.55 136.75 818.65 137.85C818.783 138.917 818.917 140.167 819.05 141.6C819.217 143.033 819.383 144.517 819.55 146.05C819.75 147.55 819.933 149 820.1 150.4C820.267 151.767 820.417 152.95 820.55 153.95C820.683 154.95 820.783 155.617 820.85 155.95C820.95 156.45 821.05 157.05 821.15 157.75C821.25 158.417 821.25 159.083 821.15 159.75C821.05 160.383 820.733 160.917 820.2 161.35C819.7 161.783 818.867 162 817.7 162C816.567 162 815.683 161.883 815.05 161.65C814.417 161.383 813.967 161.067 813.7 160.7C813.433 160.333 813.267 160 813.2 159.7C813.167 159.367 813.133 159.133 813.1 159C813.067 158.9 812.983 158.433 812.85 157.6C812.717 156.767 812.55 155.767 812.35 154.6C812.183 153.433 812 152.283 811.8 151.15C811.633 149.983 811.483 149.017 811.35 148.25C811.217 147.483 811.15 147.1 811.15 147.1C811.15 147.1 810.933 147.117 810.5 147.15C810.1 147.15 809.6 147.133 809 147.1C808.433 147.033 807.883 146.9 807.35 146.7C806.85 146.467 806.483 146.117 806.25 145.65C806.05 145.15 806.1 144.483 806.4 143.65C806.8 142.583 807.217 141.433 807.65 140.2C808.083 138.967 808.583 137.783 809.15 136.65C809.75 135.517 810.433 134.6 811.2 133.9C812 133.167 812.95 132.8 814.05 132.8ZM826.233 159.3C826.233 159.3 826.199 158.833 826.133 157.9C826.099 156.967 826.033 155.767 825.933 154.3C825.866 152.833 825.783 151.267 825.683 149.6C825.583 147.9 825.483 146.283 825.383 144.75C825.316 143.183 825.266 141.883 825.233 140.85C825.199 139.783 825.183 139.15 825.183 138.95C825.249 138.383 825.299 137.933 825.333 137.6C825.399 137.233 825.566 136.983 825.833 136.85C826.033 136.75 826.083 136.617 825.983 136.45C825.916 136.283 825.899 136.067 825.933 135.8C825.999 135.533 826.333 135.25 826.933 134.95C827.399 134.717 828.133 134.383 829.133 133.95C830.166 133.483 831.399 133.117 832.833 132.85C834.266 132.583 835.799 132.617 837.433 132.95C839.066 133.25 840.716 134.033 842.383 135.3C843.516 136.167 844.199 137.067 844.433 138C844.699 138.9 844.699 139.783 844.433 140.65C844.166 141.483 843.783 142.25 843.283 142.95C842.783 143.617 842.316 144.15 841.883 144.55C841.483 144.95 841.283 145.15 841.283 145.15C841.283 145.15 841.516 145.233 841.983 145.4C842.449 145.567 843.016 145.833 843.683 146.2C844.383 146.567 845.083 147.067 845.783 147.7C846.483 148.3 847.066 149.05 847.533 149.95C848.033 150.85 848.299 151.9 848.333 153.1C848.399 155.133 847.766 156.8 846.433 158.1C845.133 159.4 843.316 160.383 840.983 161.05C838.683 161.683 836.033 162 833.033 162C831.299 162 829.966 161.867 829.033 161.6C828.099 161.333 827.433 161.017 827.033 160.65C826.633 160.283 826.399 159.967 826.333 159.7C826.266 159.433 826.233 159.3 826.233 159.3ZM832.883 137.75C832.883 137.75 832.883 138.017 832.883 138.55C832.916 139.05 832.933 139.65 832.933 140.35C832.966 141.05 832.999 141.7 833.033 142.3C833.099 142.867 833.166 143.217 833.233 143.35C833.299 143.483 833.533 143.45 833.933 143.25C834.333 143.05 834.749 142.75 835.183 142.35C835.649 141.917 836.016 141.433 836.283 140.9C836.583 140.333 836.683 139.783 836.583 139.25C836.349 138.183 835.866 137.567 835.133 137.4C834.399 137.233 833.649 137.35 832.883 137.75ZM833.983 149.35L834.333 157.65C834.333 157.65 834.566 157.65 835.033 157.65C835.499 157.65 836.066 157.6 836.733 157.5C837.399 157.4 838.049 157.183 838.683 156.85C839.349 156.517 839.866 156.033 840.233 155.4C840.633 154.733 840.766 153.833 840.633 152.7C840.499 151.567 840.183 150.733 839.683 150.2C839.216 149.633 838.649 149.267 837.983 149.1C837.349 148.933 836.716 148.883 836.083 148.95C835.483 148.983 834.983 149.067 834.583 149.2C834.183 149.3 833.983 149.35 833.983 149.35Z" fill="#FFA3EB"/>
</svg>
