<svg width="388" height="150" viewBox="0 0 388 150" fill="none" xmlns="http://www.w3.org/2000/svg">
<rect x="10.5" y="17.5" width="373" height="128" rx="31.5" fill="#8AF5FF" stroke="#FFA3EB" stroke-width="9"/>
<rect x="4.5" y="4.5" width="372" height="128" rx="31.5" fill="white" stroke="#9AC6FF" stroke-width="9"/>
<path d="M70.34 55.75C69.7333 55.8433 68.87 55.9133 67.75 55.96C66.63 55.96 65.4867 55.89 64.32 55.75C63.1533 55.61 62.15 55.3533 61.31 54.98C60.47 54.56 60.0033 53.9533 59.91 53.16C59.8633 52.3667 60.0967 51.7367 60.61 51.27C61.17 50.8033 61.8233 50.4533 62.57 50.22C63.3167 49.94 63.97 49.7767 64.53 49.73C65.1367 49.6367 65.44 49.59 65.44 49.59L85.04 47.77C85.04 47.77 85.3667 47.77 86.02 47.77C86.6733 47.7233 87.42 47.7467 88.26 47.84C89.1467 47.9333 89.94 48.1667 90.64 48.54C91.34 48.8667 91.7133 49.4033 91.76 50.15C91.8533 50.8967 91.62 51.5267 91.06 52.04C90.5467 52.5067 89.9167 52.9033 89.17 53.23C88.4233 53.51 87.77 53.72 87.21 53.86C86.65 53.9533 86.37 54 86.37 54L81.89 54.7C82.0767 55.8667 82.2867 57.5233 82.52 59.67C82.7533 61.77 82.9867 64.1033 83.22 66.67C83.4533 69.2367 83.6633 71.7567 83.85 74.23C84.0367 76.7033 84.1767 78.92 84.27 80.88C84.41 82.84 84.48 84.24 84.48 85.08C84.48 86.1533 84.1767 86.97 83.57 87.53C83.01 88.0433 82.3333 88.4167 81.54 88.65C80.7933 88.8367 80.1167 88.9533 79.51 89C78.95 89 78.67 89 78.67 89C78.67 89 78.3667 89 77.76 89C77.1533 88.9533 76.4533 88.7667 75.66 88.44C74.9133 88.1133 74.2367 87.5067 73.63 86.62C73.07 85.7333 72.79 84.4033 72.79 82.63C72.79 81.0433 72.6967 79.1067 72.51 76.82C72.37 74.5333 72.1833 72.1767 71.95 69.75C71.7167 67.2767 71.46 64.99 71.18 62.89C70.9467 60.79 70.7367 59.0867 70.55 57.78C70.41 56.4267 70.34 55.75 70.34 55.75ZM101.781 51.48C101.781 51.48 102.108 51.48 102.761 51.48C103.415 51.4333 104.185 51.55 105.071 51.83C105.958 52.0633 106.751 52.5533 107.451 53.3C108.198 54 108.641 55.0967 108.781 56.59C108.875 57.7567 109.061 59.2733 109.341 61.14C109.621 62.96 109.925 64.8733 110.251 66.88C110.578 68.8867 110.881 70.7767 111.161 72.55C111.488 74.2767 111.745 75.7 111.931 76.82C112.165 77.94 112.281 78.5 112.281 78.5L115.291 67.3C115.291 67.3 115.408 66.9733 115.641 66.32C115.875 65.62 116.295 64.9433 116.901 64.29C117.555 63.6367 118.511 63.31 119.771 63.31C121.031 63.31 121.988 63.5667 122.641 64.08C123.295 64.5467 123.761 65.13 124.041 65.83C124.368 66.53 124.625 67.2067 124.811 67.86C124.951 68.3267 125.161 69.12 125.441 70.24C125.768 71.3133 126.071 72.4567 126.351 73.67C126.678 74.8833 126.958 75.91 127.191 76.75C127.425 77.59 127.541 78.01 127.541 78.01L128.171 72.2L131.111 51.62C131.111 51.62 131.251 51.3167 131.531 50.71C131.858 50.0567 132.465 49.4267 133.351 48.82C134.285 48.2133 135.661 47.98 137.481 48.12C140.235 48.3067 141.915 48.8667 142.521 49.8C143.175 50.7333 143.268 51.8767 142.801 53.23C142.568 53.8833 142.218 55.3067 141.751 57.5C141.285 59.6467 140.748 62.2367 140.141 65.27C139.535 68.3033 138.951 71.5 138.391 74.86C137.831 78.1733 137.341 81.3233 136.921 84.31C136.735 85.85 136.315 87.04 135.661 87.88C135.055 88.6733 134.401 89.2333 133.701 89.56C133.001 89.8867 132.395 90.0733 131.881 90.12C131.368 90.1667 131.111 90.19 131.111 90.19C131.111 90.19 130.808 90.19 130.201 90.19C129.595 90.2367 128.848 90.1433 127.961 89.91C127.121 89.6767 126.281 89.1867 125.441 88.44C124.648 87.6933 124.018 86.5267 123.551 84.94C122.665 81.7667 121.895 79.1067 121.241 76.96C120.588 74.8133 120.261 73.74 120.261 73.74L116.341 85.64C116.341 85.64 116.201 85.92 115.921 86.48C115.641 87.04 115.081 87.6 114.241 88.16C113.448 88.72 112.258 89 110.671 89C108.291 89 106.635 88.6267 105.701 87.88C104.815 87.0867 104.115 85.8267 103.601 84.1C103.461 83.4933 103.181 82.42 102.761 80.88C102.341 79.2933 101.875 77.45 101.361 75.35C100.848 73.25 100.311 71.1033 99.7515 68.91C99.1915 66.67 98.6782 64.6167 98.2115 62.75C97.7448 60.8367 97.3482 59.2967 97.0215 58.13C96.7415 56.9167 96.6015 56.31 96.6015 56.31C96.6015 56.31 96.5548 56.1 96.4615 55.68C96.3682 55.26 96.4148 54.77 96.6015 54.21C96.7882 53.6033 97.2548 53.0433 98.0015 52.53C98.7948 52.0167 100.055 51.6667 101.781 51.48ZM150.071 85.43C149.931 83.8433 149.837 81.86 149.791 79.48C149.744 77.0533 149.721 74.4633 149.721 71.71C149.721 68.9567 149.744 66.2967 149.791 63.73C149.884 61.1167 149.977 58.8067 150.071 56.8C150.164 54.7933 150.257 53.3467 150.351 52.46C150.491 51.34 150.887 50.5 151.541 49.94C152.194 49.3333 152.917 48.9133 153.711 48.68C154.551 48.4467 155.251 48.33 155.811 48.33C156.417 48.2833 156.721 48.26 156.721 48.26C156.721 48.26 157.001 48.3067 157.561 48.4C158.167 48.4467 158.821 48.5633 159.521 48.75C160.221 48.9367 160.711 49.2633 160.991 49.73C161.597 50.6633 161.877 51.5733 161.831 52.46C161.831 53.3 161.784 54.3967 161.691 55.75C161.411 59.25 161.247 62.68 161.201 66.04C161.154 69.4 161.154 72.4567 161.201 75.21C161.247 77.9633 161.294 80.1567 161.341 81.79C161.434 83.4233 161.481 84.24 161.481 84.24C161.481 84.24 161.457 84.4967 161.411 85.01C161.411 85.4767 161.271 86.0133 160.991 86.62C160.711 87.2267 160.174 87.7867 159.381 88.3C158.587 88.7667 157.421 89 155.881 89C154.341 89 153.151 88.8367 152.311 88.51C151.517 88.1367 150.957 87.7167 150.631 87.25C150.351 86.7367 150.187 86.3167 150.141 85.99C150.094 85.6167 150.071 85.43 150.071 85.43ZM178.31 55.75C177.703 55.8433 176.84 55.9133 175.72 55.96C174.6 55.96 173.456 55.89 172.29 55.75C171.123 55.61 170.12 55.3533 169.28 54.98C168.44 54.56 167.973 53.9533 167.88 53.16C167.833 52.3667 168.066 51.7367 168.58 51.27C169.14 50.8033 169.793 50.4533 170.54 50.22C171.286 49.94 171.94 49.7767 172.5 49.73C173.106 49.6367 173.41 49.59 173.41 49.59L193.01 47.77C193.01 47.77 193.336 47.77 193.99 47.77C194.643 47.7233 195.39 47.7467 196.23 47.84C197.116 47.9333 197.91 48.1667 198.61 48.54C199.31 48.8667 199.683 49.4033 199.73 50.15C199.823 50.8967 199.59 51.5267 199.03 52.04C198.516 52.5067 197.886 52.9033 197.14 53.23C196.393 53.51 195.74 53.72 195.18 53.86C194.62 53.9533 194.34 54 194.34 54L189.86 54.7C190.046 55.8667 190.256 57.5233 190.49 59.67C190.723 61.77 190.956 64.1033 191.19 66.67C191.423 69.2367 191.633 71.7567 191.82 74.23C192.006 76.7033 192.146 78.92 192.24 80.88C192.38 82.84 192.45 84.24 192.45 85.08C192.45 86.1533 192.146 86.97 191.54 87.53C190.98 88.0433 190.303 88.4167 189.51 88.65C188.763 88.8367 188.086 88.9533 187.48 89C186.92 89 186.64 89 186.64 89C186.64 89 186.336 89 185.73 89C185.123 88.9533 184.423 88.7667 183.63 88.44C182.883 88.1133 182.206 87.5067 181.6 86.62C181.04 85.7333 180.76 84.4033 180.76 82.63C180.76 81.0433 180.666 79.1067 180.48 76.82C180.34 74.5333 180.153 72.1767 179.92 69.75C179.686 67.2767 179.43 64.99 179.15 62.89C178.916 60.79 178.706 59.0867 178.52 57.78C178.38 56.4267 178.31 55.75 178.31 55.75ZM214.231 55.75C213.624 55.8433 212.761 55.9133 211.641 55.96C210.521 55.96 209.378 55.89 208.211 55.75C207.044 55.61 206.041 55.3533 205.201 54.98C204.361 54.56 203.894 53.9533 203.801 53.16C203.754 52.3667 203.988 51.7367 204.501 51.27C205.061 50.8033 205.714 50.4533 206.461 50.22C207.208 49.94 207.861 49.7767 208.421 49.73C209.028 49.6367 209.331 49.59 209.331 49.59L228.931 47.77C228.931 47.77 229.258 47.77 229.911 47.77C230.564 47.7233 231.311 47.7467 232.151 47.84C233.038 47.9333 233.831 48.1667 234.531 48.54C235.231 48.8667 235.604 49.4033 235.651 50.15C235.744 50.8967 235.511 51.5267 234.951 52.04C234.438 52.5067 233.808 52.9033 233.061 53.23C232.314 53.51 231.661 53.72 231.101 53.86C230.541 53.9533 230.261 54 230.261 54L225.781 54.7C225.968 55.8667 226.178 57.5233 226.411 59.67C226.644 61.77 226.878 64.1033 227.111 66.67C227.344 69.2367 227.554 71.7567 227.741 74.23C227.928 76.7033 228.068 78.92 228.161 80.88C228.301 82.84 228.371 84.24 228.371 85.08C228.371 86.1533 228.068 86.97 227.461 87.53C226.901 88.0433 226.224 88.4167 225.431 88.65C224.684 88.8367 224.008 88.9533 223.401 89C222.841 89 222.561 89 222.561 89C222.561 89 222.258 89 221.651 89C221.044 88.9533 220.344 88.7667 219.551 88.44C218.804 88.1133 218.128 87.5067 217.521 86.62C216.961 85.7333 216.681 84.4033 216.681 82.63C216.681 81.0433 216.588 79.1067 216.401 76.82C216.261 74.5333 216.074 72.1767 215.841 69.75C215.608 67.2767 215.351 64.99 215.071 62.89C214.838 60.79 214.628 59.0867 214.441 57.78C214.301 56.4267 214.231 55.75 214.231 55.75ZM240.353 53.51C240.353 53.51 240.306 53.3233 240.213 52.95C240.119 52.53 240.143 52.04 240.283 51.48C240.469 50.92 240.889 50.4067 241.543 49.94C242.243 49.4733 243.339 49.17 244.833 49.03C246.326 48.89 248.006 48.7733 249.873 48.68C251.786 48.5867 253.606 48.4933 255.333 48.4C257.106 48.3067 258.553 48.2367 259.673 48.19C260.793 48.1433 261.353 48.12 261.353 48.12C261.353 48.12 261.656 48.1433 262.263 48.19C262.916 48.19 263.663 48.2833 264.503 48.47C265.389 48.61 266.183 48.9133 266.883 49.38C267.583 49.8 268.003 50.43 268.143 51.27C268.283 52.11 268.119 52.7633 267.653 53.23C267.186 53.6967 266.626 54.0467 265.973 54.28C265.319 54.4667 264.736 54.5833 264.223 54.63C263.709 54.6767 263.453 54.7 263.453 54.7L252.253 55.33C252.253 55.33 252.323 55.6333 252.463 56.24C252.603 56.8467 252.743 57.5467 252.883 58.34C253.069 59.0867 253.186 59.74 253.233 60.3C253.279 60.8133 253.326 61.49 253.373 62.33C253.419 63.1233 253.466 63.8467 253.513 64.5C253.559 65.1067 253.583 65.41 253.583 65.41H258.763C258.763 65.41 259.019 65.4333 259.533 65.48C260.046 65.48 260.629 65.5733 261.283 65.76C261.983 65.9 262.589 66.1333 263.103 66.46C263.616 66.7867 263.896 67.2767 263.943 67.93C263.989 68.77 263.663 69.4 262.963 69.82C262.309 70.24 261.609 70.52 260.863 70.66C260.163 70.7533 259.719 70.8233 259.533 70.87C259.393 70.87 259.019 70.8933 258.413 70.94C257.806 70.94 257.129 70.94 256.383 70.94C255.683 70.94 255.053 70.94 254.493 70.94C253.933 70.94 253.653 70.94 253.653 70.94C253.653 70.94 253.653 71.29 253.653 71.99C253.699 72.6433 253.746 73.4133 253.793 74.3C253.839 75.1867 253.839 75.9567 253.793 76.61C253.793 77.2167 253.769 77.9633 253.723 78.85C253.676 79.69 253.629 80.4367 253.583 81.09C253.536 81.6967 253.513 82 253.513 82L262.963 81.65C262.963 81.65 263.266 81.65 263.873 81.65C264.479 81.6033 265.203 81.65 266.043 81.79C266.883 81.93 267.629 82.21 268.283 82.63C268.936 83.05 269.286 83.68 269.333 84.52C269.426 85.36 269.193 86.0367 268.633 86.55C268.073 87.0633 267.419 87.4367 266.673 87.67C265.926 87.9033 265.249 88.0667 264.643 88.16C264.083 88.2067 263.803 88.23 263.803 88.23L248.683 89C248.683 89 248.309 89 247.562 89C246.863 89.0467 246.046 89 245.113 88.86C244.179 88.6733 243.363 88.3233 242.663 87.81C241.963 87.25 241.636 86.41 241.683 85.29C241.776 83.7967 241.869 81.4633 241.963 78.29C242.056 75.07 242.009 71.3133 241.823 67.02C241.636 62.7267 241.146 58.2233 240.353 53.51ZM277.315 85.22L274.095 54.7C274.095 54.7 274.025 54.56 273.885 54.28C273.791 54 273.768 53.6267 273.815 53.16C273.861 52.6933 274.118 52.2033 274.585 51.69C275.098 51.1767 275.961 50.71 277.175 50.29C278.808 49.6833 280.721 49.1933 282.915 48.82C285.155 48.4 287.511 48.2833 289.985 48.47C292.505 48.6567 294.978 49.4033 297.405 50.71C298.851 51.4567 299.925 52.53 300.625 53.93C301.325 55.33 301.745 56.8233 301.885 58.41C302.025 59.9967 302.025 61.5133 301.885 62.96C301.791 64.4067 301.628 65.5967 301.395 66.53C301.208 67.4633 301.115 67.93 301.115 67.93C301.115 67.93 300.951 68.28 300.625 68.98C300.298 69.68 299.668 70.4733 298.735 71.36C297.848 72.2 296.541 72.8767 294.815 73.39L304.755 84.1C304.755 84.1 304.918 84.2867 305.245 84.66C305.571 85.0333 305.828 85.5 306.015 86.06C306.248 86.5733 306.201 87.11 305.875 87.67C305.595 88.1833 304.825 88.6267 303.565 89C302.258 89.3733 301.091 89.4667 300.065 89.28C299.085 89.0933 298.268 88.79 297.615 88.37C297.008 87.95 296.541 87.5533 296.215 87.18C295.888 86.8067 295.725 86.62 295.725 86.62L286.485 75.21L288.795 85.08C288.795 85.08 288.841 85.29 288.935 85.71C289.028 86.0833 288.981 86.5267 288.795 87.04C288.608 87.5533 288.141 88.02 287.395 88.44C286.648 88.8133 285.458 89 283.825 89C282.191 89 280.908 88.8133 279.975 88.44C279.088 88.0667 278.458 87.6233 278.085 87.11C277.711 86.5967 277.478 86.1533 277.385 85.78C277.338 85.4067 277.315 85.22 277.315 85.22ZM283.965 54.63L285.645 68.7C285.645 68.7 285.901 68.7233 286.415 68.77C286.975 68.8167 287.628 68.77 288.375 68.63C289.168 68.49 289.915 68.1633 290.615 67.65C291.361 67.09 291.968 66.25 292.435 65.13C292.901 63.9633 293.065 62.3767 292.925 60.37C292.785 58.4567 292.411 57.0567 291.805 56.17C291.198 55.2367 290.451 54.6533 289.565 54.42C288.678 54.14 287.745 54.07 286.765 54.21C285.785 54.3033 284.851 54.4433 283.965 54.63Z" fill="#FFA3EB"/>
</svg>
