<svg width="388" height="150" viewBox="0 0 388 150" fill="none" xmlns="http://www.w3.org/2000/svg">
<rect x="10.5" y="17.5" width="373" height="128" rx="31.5" fill="#8AF5FF" stroke="#FFA3EB" stroke-width="9"/>
<rect x="4.5" y="4.5" width="372" height="128" rx="31.5" fill="white" stroke="#9AC6FF" stroke-width="9"/>
<path d="M58.34 55.75C57.7333 55.8433 56.87 55.9133 55.75 55.96C54.63 55.96 53.4867 55.89 52.32 55.75C51.1533 55.61 50.15 55.3533 49.31 54.98C48.47 54.56 48.0033 53.9533 47.91 53.16C47.8633 52.3667 48.0967 51.7367 48.61 51.27C49.17 50.8033 49.8233 50.4533 50.57 50.22C51.3167 49.94 51.97 49.7767 52.53 49.73C53.1367 49.6367 53.44 49.59 53.44 49.59L73.04 47.77C73.04 47.77 73.3667 47.77 74.02 47.77C74.6733 47.7233 75.42 47.7467 76.26 47.84C77.1467 47.9333 77.94 48.1667 78.64 48.54C79.34 48.8667 79.7133 49.4033 79.76 50.15C79.8533 50.8967 79.62 51.5267 79.06 52.04C78.5467 52.5067 77.9167 52.9033 77.17 53.23C76.4233 53.51 75.77 53.72 75.21 53.86C74.65 53.9533 74.37 54 74.37 54L69.89 54.7C70.0767 55.8667 70.2867 57.5233 70.52 59.67C70.7533 61.77 70.9867 64.1033 71.22 66.67C71.4533 69.2367 71.6633 71.7567 71.85 74.23C72.0367 76.7033 72.1767 78.92 72.27 80.88C72.41 82.84 72.48 84.24 72.48 85.08C72.48 86.1533 72.1767 86.97 71.57 87.53C71.01 88.0433 70.3333 88.4167 69.54 88.65C68.7933 88.8367 68.1167 88.9533 67.51 89C66.95 89 66.67 89 66.67 89C66.67 89 66.3667 89 65.76 89C65.1533 88.9533 64.4533 88.7667 63.66 88.44C62.9133 88.1133 62.2367 87.5067 61.63 86.62C61.07 85.7333 60.79 84.4033 60.79 82.63C60.79 81.0433 60.6967 79.1067 60.51 76.82C60.37 74.5333 60.1833 72.1767 59.95 69.75C59.7167 67.2767 59.46 64.99 59.18 62.89C58.9467 60.79 58.7367 59.0867 58.55 57.78C58.41 56.4267 58.34 55.75 58.34 55.75ZM84.4615 53.51C84.4615 53.51 84.4148 53.3233 84.3215 52.95C84.2282 52.53 84.2515 52.04 84.3915 51.48C84.5782 50.92 84.9982 50.4067 85.6515 49.94C86.3515 49.4733 87.4482 49.17 88.9415 49.03C90.4348 48.89 92.1148 48.7733 93.9815 48.68C95.8948 48.5867 97.7148 48.4933 99.4415 48.4C101.215 48.3067 102.661 48.2367 103.781 48.19C104.901 48.1433 105.461 48.12 105.461 48.12C105.461 48.12 105.765 48.1433 106.371 48.19C107.025 48.19 107.771 48.2833 108.611 48.47C109.498 48.61 110.291 48.9133 110.991 49.38C111.691 49.8 112.111 50.43 112.251 51.27C112.391 52.11 112.228 52.7633 111.761 53.23C111.295 53.6967 110.735 54.0467 110.081 54.28C109.428 54.4667 108.845 54.5833 108.331 54.63C107.818 54.6767 107.561 54.7 107.561 54.7L96.3615 55.33C96.3615 55.33 96.4315 55.6333 96.5715 56.24C96.7115 56.8467 96.8515 57.5467 96.9915 58.34C97.1782 59.0867 97.2948 59.74 97.3415 60.3C97.3882 60.8133 97.4348 61.49 97.4815 62.33C97.5282 63.1233 97.5748 63.8467 97.6215 64.5C97.6682 65.1067 97.6915 65.41 97.6915 65.41H102.871C102.871 65.41 103.128 65.4333 103.641 65.48C104.155 65.48 104.738 65.5733 105.391 65.76C106.091 65.9 106.698 66.1333 107.211 66.46C107.725 66.7867 108.005 67.2767 108.051 67.93C108.098 68.77 107.771 69.4 107.071 69.82C106.418 70.24 105.718 70.52 104.971 70.66C104.271 70.7533 103.828 70.8233 103.641 70.87C103.501 70.87 103.128 70.8933 102.521 70.94C101.915 70.94 101.238 70.94 100.491 70.94C99.7915 70.94 99.1615 70.94 98.6015 70.94C98.0415 70.94 97.7615 70.94 97.7615 70.94C97.7615 70.94 97.7615 71.29 97.7615 71.99C97.8082 72.6433 97.8548 73.4133 97.9015 74.3C97.9482 75.1867 97.9482 75.9567 97.9015 76.61C97.9015 77.2167 97.8782 77.9633 97.8315 78.85C97.7848 79.69 97.7382 80.4367 97.6915 81.09C97.6448 81.6967 97.6215 82 97.6215 82L107.071 81.65C107.071 81.65 107.375 81.65 107.981 81.65C108.588 81.6033 109.311 81.65 110.151 81.79C110.991 81.93 111.738 82.21 112.391 82.63C113.045 83.05 113.395 83.68 113.441 84.52C113.535 85.36 113.301 86.0367 112.741 86.55C112.181 87.0633 111.528 87.4367 110.781 87.67C110.035 87.9033 109.358 88.0667 108.751 88.16C108.191 88.2067 107.911 88.23 107.911 88.23L92.7915 89C92.7915 89 92.4182 89 91.6715 89C90.9715 89.0467 90.1548 89 89.2215 88.86C88.2882 88.6733 87.4715 88.3233 86.7715 87.81C86.0715 87.25 85.7448 86.41 85.7915 85.29C85.8848 83.7967 85.9782 81.4633 86.0715 78.29C86.1648 75.07 86.1182 71.3133 85.9315 67.02C85.7448 62.7267 85.2548 58.2233 84.4615 53.51ZM133.254 79.2C133.3 79.2 133.72 79.2 134.514 79.2C135.307 79.1533 136.287 79.13 137.454 79.13C138.62 79.0833 139.764 79.06 140.884 79.06C142.05 79.0133 143.03 78.99 143.824 78.99C144.617 78.9433 145.014 78.92 145.014 78.92C145.014 78.92 145.27 78.92 145.784 78.92C146.297 78.92 146.904 79.0133 147.604 79.2C148.304 79.34 148.91 79.6667 149.424 80.18C149.984 80.6933 150.287 81.4867 150.334 82.56C150.38 83.5867 150.077 84.4033 149.424 85.01C148.817 85.57 148.07 85.9667 147.184 86.2C146.344 86.3867 145.574 86.5033 144.874 86.55C144.22 86.5967 143.894 86.62 143.894 86.62C143.894 86.62 143.404 86.6667 142.424 86.76C141.49 86.8067 140.254 86.9233 138.714 87.11C137.174 87.2967 135.494 87.5533 133.674 87.88C131.854 88.16 130.104 88.5333 128.424 89C126.744 89.4667 125.344 89.63 124.224 89.49C123.15 89.3967 122.31 89.1633 121.704 88.79C121.097 88.37 120.654 87.95 120.374 87.53C120.14 87.0633 120.024 86.76 120.024 86.62C119.977 86.2933 120.07 85.8967 120.304 85.43C120.537 84.9167 120.98 84.5667 121.634 84.38C121.867 84.3333 121.984 83.68 121.984 82.42C121.984 81.1133 121.89 79.4567 121.704 77.45C121.564 75.3967 121.354 73.18 121.074 70.8C120.794 68.42 120.467 66.0633 120.094 63.73C119.767 61.3967 119.44 59.32 119.114 57.5C118.787 55.68 118.46 54.3267 118.134 53.44C117.667 52.0867 117.62 51.0367 117.994 50.29C118.367 49.5433 118.88 49.0067 119.534 48.68C120.234 48.3067 120.864 48.0733 121.424 47.98C122.03 47.8867 122.334 47.84 122.334 47.84C122.334 47.84 122.637 47.8167 123.244 47.77C123.897 47.6767 124.644 47.7233 125.484 47.91C126.37 48.05 127.187 48.4467 127.934 49.1C128.727 49.7067 129.287 50.7333 129.614 52.18C130.034 54.0933 130.524 56.3567 131.084 58.97C131.69 61.5367 132.204 64.5 132.624 67.86C133.09 71.22 133.3 75 133.254 79.2ZM153.365 53.51C153.365 53.51 153.318 53.3233 153.225 52.95C153.132 52.53 153.155 52.04 153.295 51.48C153.482 50.92 153.902 50.4067 154.555 49.94C155.255 49.4733 156.352 49.17 157.845 49.03C159.338 48.89 161.018 48.7733 162.885 48.68C164.798 48.5867 166.618 48.4933 168.345 48.4C170.118 48.3067 171.565 48.2367 172.685 48.19C173.805 48.1433 174.365 48.12 174.365 48.12C174.365 48.12 174.668 48.1433 175.275 48.19C175.928 48.19 176.675 48.2833 177.515 48.47C178.402 48.61 179.195 48.9133 179.895 49.38C180.595 49.8 181.015 50.43 181.155 51.27C181.295 52.11 181.132 52.7633 180.665 53.23C180.198 53.6967 179.638 54.0467 178.985 54.28C178.332 54.4667 177.748 54.5833 177.235 54.63C176.722 54.6767 176.465 54.7 176.465 54.7L165.265 55.33C165.265 55.33 165.335 55.6333 165.475 56.24C165.615 56.8467 165.755 57.5467 165.895 58.34C166.082 59.0867 166.198 59.74 166.245 60.3C166.292 60.8133 166.338 61.49 166.385 62.33C166.432 63.1233 166.478 63.8467 166.525 64.5C166.572 65.1067 166.595 65.41 166.595 65.41H171.775C171.775 65.41 172.032 65.4333 172.545 65.48C173.058 65.48 173.642 65.5733 174.295 65.76C174.995 65.9 175.602 66.1333 176.115 66.46C176.628 66.7867 176.908 67.2767 176.955 67.93C177.002 68.77 176.675 69.4 175.975 69.82C175.322 70.24 174.622 70.52 173.875 70.66C173.175 70.7533 172.732 70.8233 172.545 70.87C172.405 70.87 172.032 70.8933 171.425 70.94C170.818 70.94 170.142 70.94 169.395 70.94C168.695 70.94 168.065 70.94 167.505 70.94C166.945 70.94 166.665 70.94 166.665 70.94C166.665 70.94 166.665 71.29 166.665 71.99C166.712 72.6433 166.758 73.4133 166.805 74.3C166.852 75.1867 166.852 75.9567 166.805 76.61C166.805 77.2167 166.782 77.9633 166.735 78.85C166.688 79.69 166.642 80.4367 166.595 81.09C166.548 81.6967 166.525 82 166.525 82L175.975 81.65C175.975 81.65 176.278 81.65 176.885 81.65C177.492 81.6033 178.215 81.65 179.055 81.79C179.895 81.93 180.642 82.21 181.295 82.63C181.948 83.05 182.298 83.68 182.345 84.52C182.438 85.36 182.205 86.0367 181.645 86.55C181.085 87.0633 180.432 87.4367 179.685 87.67C178.938 87.9033 178.262 88.0667 177.655 88.16C177.095 88.2067 176.815 88.23 176.815 88.23L161.695 89C161.695 89 161.322 89 160.575 89C159.875 89.0467 159.058 89 158.125 88.86C157.192 88.6733 156.375 88.3233 155.675 87.81C154.975 87.25 154.648 86.41 154.695 85.29C154.788 83.7967 154.882 81.4633 154.975 78.29C155.068 75.07 155.022 71.3133 154.835 67.02C154.648 62.7267 154.158 58.2233 153.365 53.51ZM210.067 61.77C208.247 61.63 206.941 61.2567 206.147 60.65C205.401 60.0433 204.957 59.4833 204.817 58.97C204.677 58.41 204.607 58.13 204.607 58.13C204.607 58.13 204.561 57.8033 204.467 57.15C204.374 56.4967 204.141 55.8433 203.767 55.19C203.394 54.5367 202.741 54.1867 201.807 54.14C201.107 54.0933 200.547 54.5133 200.127 55.4C199.707 56.24 199.381 57.3833 199.147 58.83C198.914 60.2767 198.751 61.8867 198.657 63.66C198.611 65.3867 198.587 67.1367 198.587 68.91C198.634 71.2433 198.751 73.5067 198.937 75.7C199.171 77.8467 199.544 79.5967 200.057 80.95C200.617 82.3033 201.387 82.98 202.367 82.98C203.114 82.98 203.674 82.6533 204.047 82C204.421 81.3 204.654 80.53 204.747 79.69C204.887 78.85 204.957 78.1033 204.957 77.45C204.957 76.7967 204.957 76.47 204.957 76.47C204.957 76.47 204.677 76.4933 204.117 76.54C203.604 76.5867 203.067 76.4933 202.507 76.26C201.947 75.98 201.667 75.3967 201.667 74.51C201.667 73.5767 201.854 72.9467 202.227 72.62C202.647 72.2933 203.044 72.1067 203.417 72.06C203.837 72.0133 204.047 71.99 204.047 71.99H210.137C210.137 71.99 210.441 71.99 211.047 71.99C211.654 71.99 212.354 72.1067 213.147 72.34C213.941 72.5267 214.641 72.9 215.247 73.46C215.854 73.9733 216.181 74.7667 216.227 75.84C216.321 78.4533 215.947 80.6233 215.107 82.35C214.267 84.03 213.101 85.36 211.607 86.34C210.161 87.32 208.527 88.02 206.707 88.44C204.934 88.8133 203.114 89 201.247 89C199.381 89 197.607 88.6733 195.927 88.02C194.247 87.3667 192.754 86.2233 191.447 84.59C190.141 82.91 189.067 80.6 188.227 77.66C187.434 74.72 186.991 70.9867 186.897 66.46C186.804 62.82 187.154 59.8567 187.947 57.57C188.741 55.2833 189.767 53.51 191.027 52.25C192.287 50.99 193.594 50.1033 194.947 49.59C196.347 49.03 197.607 48.68 198.727 48.54C199.847 48.4 200.641 48.3067 201.107 48.26C201.667 48.2133 202.577 48.26 203.837 48.4C205.097 48.54 206.451 48.8667 207.897 49.38C209.344 49.8467 210.674 50.57 211.887 51.55C213.147 52.53 214.081 53.8367 214.687 55.47C215.294 57.1033 215.411 58.3633 215.037 59.25C214.664 60.09 214.081 60.6967 213.287 61.07C212.494 61.4433 211.747 61.6533 211.047 61.7C210.394 61.7467 210.067 61.77 210.067 61.77ZM224.335 85.22L221.115 54.7C221.115 54.7 221.045 54.56 220.905 54.28C220.811 54 220.788 53.6267 220.835 53.16C220.881 52.6933 221.138 52.2033 221.605 51.69C222.118 51.1767 222.981 50.71 224.195 50.29C225.828 49.6833 227.741 49.1933 229.935 48.82C232.175 48.4 234.531 48.2833 237.005 48.47C239.525 48.6567 241.998 49.4033 244.425 50.71C245.871 51.4567 246.945 52.53 247.645 53.93C248.345 55.33 248.765 56.8233 248.905 58.41C249.045 59.9967 249.045 61.5133 248.905 62.96C248.811 64.4067 248.648 65.5967 248.415 66.53C248.228 67.4633 248.135 67.93 248.135 67.93C248.135 67.93 247.971 68.28 247.645 68.98C247.318 69.68 246.688 70.4733 245.755 71.36C244.868 72.2 243.561 72.8767 241.835 73.39L251.775 84.1C251.775 84.1 251.938 84.2867 252.265 84.66C252.591 85.0333 252.848 85.5 253.035 86.06C253.268 86.5733 253.221 87.11 252.895 87.67C252.615 88.1833 251.845 88.6267 250.585 89C249.278 89.3733 248.111 89.4667 247.085 89.28C246.105 89.0933 245.288 88.79 244.635 88.37C244.028 87.95 243.561 87.5533 243.235 87.18C242.908 86.8067 242.745 86.62 242.745 86.62L233.505 75.21L235.815 85.08C235.815 85.08 235.861 85.29 235.955 85.71C236.048 86.0833 236.001 86.5267 235.815 87.04C235.628 87.5533 235.161 88.02 234.415 88.44C233.668 88.8133 232.478 89 230.845 89C229.211 89 227.928 88.8133 226.995 88.44C226.108 88.0667 225.478 87.6233 225.105 87.11C224.731 86.5967 224.498 86.1533 224.405 85.78C224.358 85.4067 224.335 85.22 224.335 85.22ZM230.985 54.63L232.665 68.7C232.665 68.7 232.921 68.7233 233.435 68.77C233.995 68.8167 234.648 68.77 235.395 68.63C236.188 68.49 236.935 68.1633 237.635 67.65C238.381 67.09 238.988 66.25 239.455 65.13C239.921 63.9633 240.085 62.3767 239.945 60.37C239.805 58.4567 239.431 57.0567 238.825 56.17C238.218 55.2367 237.471 54.6533 236.585 54.42C235.698 54.14 234.765 54.07 233.785 54.21C232.805 54.3033 231.871 54.4433 230.985 54.63ZM264.236 51.2C264.19 51.2 264.26 50.9433 264.446 50.43C264.68 49.87 265.193 49.3333 265.986 48.82C266.78 48.3067 268.086 48.0267 269.906 47.98C271.54 47.9333 272.776 48.1433 273.616 48.61C274.456 49.03 275.016 49.45 275.296 49.87C275.623 50.29 275.786 50.5 275.786 50.5C275.786 50.5 276.043 51.1067 276.556 52.32C277.07 53.5333 277.77 55.1433 278.656 57.15C279.543 59.11 280.523 61.3033 281.596 63.73C282.67 66.1567 283.743 68.63 284.816 71.15C285.936 73.6233 286.963 75.9567 287.896 78.15C288.876 80.2967 289.693 82.1167 290.346 83.61C291 85.0567 291.42 85.9667 291.606 86.34C292.026 87.2267 292.26 87.8567 292.306 88.23C292.353 88.6033 292.33 88.86 292.236 89C292.19 89.0933 292.166 89.1633 292.166 89.21C291.84 89.8633 291.186 90.4233 290.206 90.89C289.273 91.4033 288.13 91.6833 286.776 91.73C284.91 91.7767 283.556 91.5667 282.716 91.1C281.876 90.68 281.316 90.2367 281.036 89.77C280.803 89.35 280.71 89.1633 280.756 89.21C280.756 89.21 280.5 88.6733 279.986 87.6C279.52 86.5267 278.96 85.2433 278.306 83.75C277.653 82.21 277.046 80.81 276.486 79.55C276.486 79.55 276.16 79.55 275.506 79.55C274.9 79.55 274.176 79.55 273.336 79.55C272.496 79.55 271.75 79.55 271.096 79.55C270.49 79.55 270.186 79.55 270.186 79.55C270 80.2033 269.813 81.02 269.626 82C269.44 82.9333 269.276 83.7733 269.136 84.52C268.996 85.2667 268.926 85.64 268.926 85.64C268.926 85.64 268.81 85.92 268.576 86.48C268.39 87.04 267.853 87.6 266.966 88.16C266.08 88.72 264.61 89 262.556 89C261.016 89 259.85 88.8367 259.056 88.51C258.31 88.1367 257.796 87.7167 257.516 87.25C257.283 86.7833 257.166 86.3867 257.166 86.06C257.166 85.6867 257.166 85.5 257.166 85.5C257.26 85.0333 257.446 84.0767 257.726 82.63C258.053 81.1367 258.426 79.3633 258.846 77.31C259.313 75.21 259.78 72.9933 260.246 70.66C260.76 68.3267 261.25 66.0167 261.716 63.73C262.183 61.4433 262.603 59.3667 262.976 57.5C263.35 55.5867 263.653 54.07 263.886 52.95C264.12 51.7833 264.236 51.2 264.236 51.2ZM271.586 62.26C271.54 62.4467 271.493 62.82 271.446 63.38L271.166 65.34C271.073 66.4133 270.956 67.5567 270.816 68.77C270.676 69.9833 270.536 71.1267 270.396 72.2C270.303 72.76 270.233 73.11 270.186 73.25H271.096C271.656 73.25 272.263 73.2267 272.916 73.18C273.57 73.1333 274.153 73.11 274.666 73.11C274.48 72.7367 274.316 72.27 274.176 71.71C274.083 71.1033 273.966 70.5433 273.826 70.03C273.546 68.9567 273.22 67.8367 272.846 66.67C272.52 65.5033 272.216 64.4067 271.936 63.38C271.796 62.82 271.68 62.4467 271.586 62.26ZM303.304 89C301.577 89 300.271 88.7667 299.384 88.3C298.544 87.8333 297.984 87.2967 297.704 86.69C297.424 86.0833 297.284 85.5467 297.284 85.08C297.284 84.6133 297.284 84.38 297.284 84.38L296.444 54C296.444 54 296.421 53.7667 296.374 53.3C296.327 52.8333 296.421 52.2967 296.654 51.69C296.887 51.0367 297.377 50.4767 298.124 50.01C298.871 49.4967 300.037 49.24 301.624 49.24C303.724 49.1933 305.311 49.4967 306.384 50.15C307.457 50.7567 308.157 51.3867 308.484 52.04C308.857 52.6467 309.044 52.95 309.044 52.95L317.094 67.58C317.094 67.58 317.281 67.16 317.654 66.32C318.074 65.4333 318.564 64.3367 319.124 63.03C319.731 61.7233 320.337 60.3933 320.944 59.04C321.551 57.6867 322.087 56.52 322.554 55.54C323.021 54.5133 323.324 53.86 323.464 53.58C323.697 53.1133 324.117 52.4833 324.724 51.69C325.331 50.85 326.194 50.08 327.314 49.38C328.481 48.68 329.997 48.3067 331.864 48.26C333.264 48.2133 334.337 48.3767 335.084 48.75C335.831 49.0767 336.344 49.4733 336.624 49.94C336.951 50.4067 337.137 50.8267 337.184 51.2C337.231 51.5733 337.254 51.76 337.254 51.76C337.254 51.76 337.254 52.3667 337.254 53.58C337.254 54.7467 337.254 56.31 337.254 58.27C337.301 60.23 337.324 62.3767 337.324 64.71C337.324 67.0433 337.324 69.4 337.324 71.78C337.324 74.1133 337.324 76.26 337.324 78.22C337.371 80.18 337.394 81.7667 337.394 82.98C337.394 84.1933 337.394 84.8233 337.394 84.87C337.394 84.9167 337.371 85.15 337.324 85.57C337.324 85.99 337.161 86.48 336.834 87.04C336.507 87.5533 335.924 88.02 335.084 88.44C334.291 88.8133 333.101 89 331.514 89C329.927 89 328.714 88.8367 327.874 88.51C327.081 88.1367 326.521 87.74 326.194 87.32C325.867 86.8533 325.681 86.4567 325.634 86.13C325.587 85.8033 325.564 85.64 325.564 85.64C325.564 85.64 325.564 85.2433 325.564 84.45C325.564 83.61 325.564 82.5833 325.564 81.37C325.611 80.11 325.634 78.8733 325.634 77.66C325.681 76.4 325.704 75.35 325.704 74.51C325.704 73.67 325.704 73.25 325.704 73.25L326.264 63.24L322.624 71.01C322.624 71.01 322.484 71.2667 322.204 71.78C321.971 72.2933 321.504 72.8067 320.804 73.32C320.104 73.8333 319.054 74.1133 317.654 74.16C316.301 74.2067 315.227 74.02 314.434 73.6C313.687 73.1333 313.151 72.69 312.824 72.27C312.544 71.8033 312.404 71.57 312.404 71.57L307.854 63.24C307.854 63.24 307.877 63.8 307.924 64.92C308.017 65.9933 308.111 67.4167 308.204 69.19C308.297 70.9167 308.391 72.76 308.484 74.72C308.577 76.6333 308.647 78.4533 308.694 80.18C308.787 81.86 308.857 83.2133 308.904 84.24C308.951 85.5 308.694 86.48 308.134 87.18C307.574 87.8333 306.921 88.3 306.174 88.58C305.427 88.8133 304.751 88.9533 304.144 89C303.584 89 303.304 89 303.304 89Z" fill="#FFA3EB"/>
</svg>
