<svg width="301" height="61" viewBox="0 0 301 61" fill="none" xmlns="http://www.w3.org/2000/svg">
<path d="M6.2 18C6.16667 18 6.21667 17.8167 6.35 17.45C6.51667 17.05 6.88333 16.6667 7.45 16.3C8.01667 15.9333 8.95 15.7333 10.25 15.7C11.4167 15.6667 12.3 15.8167 12.9 16.15C13.5 16.45 13.9 16.75 14.1 17.05C14.3333 17.35 14.45 17.5 14.45 17.5C14.45 17.5 14.6333 17.9333 15 18.8C15.3667 19.6667 15.8667 20.8167 16.5 22.25C17.1333 23.65 17.8333 25.2167 18.6 26.95C19.3667 28.6833 20.1333 30.45 20.9 32.25C21.7 34.0167 22.4333 35.6833 23.1 37.25C23.8 38.7833 24.3833 40.0833 24.85 41.15C25.3167 42.1833 25.6167 42.8333 25.75 43.1C26.05 43.7333 26.2167 44.1833 26.25 44.45C26.2833 44.7167 26.2667 44.9 26.2 45C26.1667 45.0667 26.15 45.1167 26.15 45.15C25.9167 45.6167 25.45 46.0167 24.75 46.35C24.0833 46.7167 23.2667 46.9167 22.3 46.95C20.9667 46.9833 20 46.8333 19.4 46.5C18.8 46.2 18.4 45.8833 18.2 45.55C18.0333 45.25 17.9667 45.1167 18 45.15C18 45.15 17.8167 44.7667 17.45 44C17.1167 43.2333 16.7167 42.3167 16.25 41.25C15.7833 40.15 15.35 39.15 14.95 38.25C14.95 38.25 14.7167 38.25 14.25 38.25C13.8167 38.25 13.3 38.25 12.7 38.25C12.1 38.25 11.5667 38.25 11.1 38.25C10.6667 38.25 10.45 38.25 10.45 38.25C10.3167 38.7167 10.1833 39.3 10.05 40C9.91667 40.6667 9.8 41.2667 9.7 41.8C9.6 42.3333 9.55 42.6 9.55 42.6C9.55 42.6 9.46667 42.8 9.3 43.2C9.16667 43.6 8.78333 44 8.15 44.4C7.51667 44.8 6.46667 45 5 45C3.9 45 3.06667 44.8833 2.5 44.65C1.96667 44.3833 1.6 44.0833 1.4 43.75C1.23333 43.4167 1.15 43.1333 1.15 42.9C1.15 42.6333 1.15 42.5 1.15 42.5C1.21667 42.1667 1.35 41.4833 1.55 40.45C1.78333 39.3833 2.05 38.1167 2.35 36.65C2.68333 35.15 3.01667 33.5667 3.35 31.9C3.71667 30.2333 4.06667 28.5833 4.4 26.95C4.73333 25.3167 5.03333 23.8333 5.3 22.5C5.56667 21.1333 5.78333 20.05 5.95 19.25C6.11667 18.4167 6.2 18 6.2 18ZM11.45 25.9C11.4167 26.0333 11.3833 26.3 11.35 26.7L11.15 28.1C11.0833 28.8667 11 29.6833 10.9 30.55C10.8 31.4167 10.7 32.2333 10.6 33C10.5333 33.4 10.4833 33.65 10.45 33.75H11.1C11.5 33.75 11.9333 33.7333 12.4 33.7C12.8667 33.6667 13.2833 33.65 13.65 33.65C13.5167 33.3833 13.4 33.05 13.3 32.65C13.2333 32.2167 13.15 31.8167 13.05 31.45C12.85 30.6833 12.6167 29.8833 12.35 29.05C12.1167 28.2167 11.9 27.4333 11.7 26.7C11.6 26.3 11.5167 26.0333 11.45 25.9ZM30.7055 42.3C30.7055 42.3 30.6721 41.8333 30.6055 40.9C30.5721 39.9667 30.5055 38.7667 30.4055 37.3C30.3388 35.8333 30.2555 34.2667 30.1555 32.6C30.0555 30.9 29.9555 29.2833 29.8555 27.75C29.7888 26.1833 29.7388 24.8833 29.7055 23.85C29.6721 22.7833 29.6555 22.15 29.6555 21.95C29.7221 21.3833 29.7721 20.9333 29.8055 20.6C29.8721 20.2333 30.0388 19.9833 30.3055 19.85C30.5055 19.75 30.5555 19.6167 30.4555 19.45C30.3888 19.2833 30.3721 19.0667 30.4055 18.8C30.4721 18.5333 30.8055 18.25 31.4055 17.95C31.8721 17.7167 32.6055 17.3833 33.6055 16.95C34.6388 16.4833 35.8721 16.1167 37.3055 15.85C38.7388 15.5833 40.2721 15.6167 41.9055 15.95C43.5388 16.25 45.1888 17.0333 46.8555 18.3C47.9888 19.1667 48.6721 20.0667 48.9055 21C49.1721 21.9 49.1721 22.7833 48.9055 23.65C48.6388 24.4833 48.2555 25.25 47.7555 25.95C47.2555 26.6167 46.7888 27.15 46.3555 27.55C45.9555 27.95 45.7555 28.15 45.7555 28.15C45.7555 28.15 45.9888 28.2333 46.4555 28.4C46.9221 28.5667 47.4888 28.8333 48.1555 29.2C48.8555 29.5667 49.5555 30.0667 50.2555 30.7C50.9555 31.3 51.5388 32.05 52.0055 32.95C52.5055 33.85 52.7721 34.9 52.8055 36.1C52.8721 38.1333 52.2388 39.8 50.9055 41.1C49.6055 42.4 47.7888 43.3833 45.4555 44.05C43.1555 44.6833 40.5055 45 37.5055 45C35.7721 45 34.4388 44.8667 33.5055 44.6C32.5721 44.3333 31.9055 44.0167 31.5055 43.65C31.1055 43.2833 30.8721 42.9667 30.8055 42.7C30.7388 42.4333 30.7055 42.3 30.7055 42.3ZM37.3555 20.75C37.3555 20.75 37.3555 21.0167 37.3555 21.55C37.3888 22.05 37.4055 22.65 37.4055 23.35C37.4388 24.05 37.4721 24.7 37.5055 25.3C37.5721 25.8667 37.6388 26.2167 37.7055 26.35C37.7721 26.4833 38.0055 26.45 38.4055 26.25C38.8055 26.05 39.2221 25.75 39.6555 25.35C40.1221 24.9167 40.4888 24.4333 40.7555 23.9C41.0555 23.3333 41.1555 22.7833 41.0555 22.25C40.8221 21.1833 40.3388 20.5667 39.6055 20.4C38.8721 20.2333 38.1221 20.35 37.3555 20.75ZM38.4555 32.35L38.8055 40.65C38.8055 40.65 39.0388 40.65 39.5055 40.65C39.9721 40.65 40.5388 40.6 41.2055 40.5C41.8721 40.4 42.5221 40.1833 43.1555 39.85C43.8221 39.5167 44.3388 39.0333 44.7055 38.4C45.1055 37.7333 45.2388 36.8333 45.1055 35.7C44.9721 34.5667 44.6555 33.7333 44.1555 33.2C43.6888 32.6333 43.1221 32.2667 42.4555 32.1C41.8221 31.9333 41.1888 31.8833 40.5555 31.95C39.9555 31.9833 39.4555 32.0667 39.0555 32.2C38.6555 32.3 38.4555 32.35 38.4555 32.35ZM55.4473 30.45C55.4473 27.7833 55.9139 25.35 56.8473 23.15C57.7806 20.9167 59.0473 19.15 60.6473 17.85C62.2473 16.5167 64.0139 15.85 65.9473 15.85C67.3806 15.85 68.7473 16.2333 70.0473 17C71.3473 17.7333 72.4973 18.7833 73.4973 20.15C74.4973 21.4833 75.2806 23.0333 75.8473 24.8C76.4139 26.5667 76.6973 28.45 76.6973 30.45C76.6973 32.45 76.4139 34.3333 75.8473 36.1C75.2806 37.8667 74.4973 39.4333 73.4973 40.8C72.4973 42.1333 71.3473 43.1833 70.0473 43.95C68.7473 44.6833 67.3806 45.05 65.9473 45.05C64.0139 45.05 62.2473 44.4 60.6473 43.1C59.0473 41.7667 57.7806 40 56.8473 37.8C55.9139 35.6 55.4473 33.15 55.4473 30.45ZM63.0973 30.25C63.0973 32.1833 63.2306 33.9667 63.4973 35.6C63.7639 37.2 64.1306 38.4833 64.5973 39.45C65.0639 40.3833 65.5806 40.85 66.1473 40.85C66.7139 40.85 67.2306 40.3833 67.6973 39.45C68.1639 38.4833 68.5306 37.2 68.7973 35.6C69.0639 33.9667 69.1973 32.1833 69.1973 30.25C69.1973 28.2833 69.0639 26.5 68.7973 24.9C68.5306 23.3 68.1639 22.0167 67.6973 21.05C67.2306 20.0833 66.7139 19.6 66.1473 19.6C65.5806 19.6 65.0639 20.0833 64.5973 21.05C64.1306 22.0167 63.7639 23.3 63.4973 24.9C63.2306 26.5 63.0973 28.2833 63.0973 30.25ZM84.5277 16.1C84.5277 16.1 84.7444 16.1333 85.1777 16.2C85.6111 16.2333 86.0944 16.3833 86.6277 16.65C87.1944 16.8833 87.6777 17.3167 88.0777 17.95C88.4777 18.55 88.6444 19.4333 88.5777 20.6C88.5444 21.3667 88.4944 22.4 88.4277 23.7C88.3944 24.9667 88.3777 26.3667 88.3777 27.9C88.3777 29.4 88.4111 30.9 88.4777 32.4C88.5777 33.9 88.7277 35.2833 88.9277 36.55C89.1611 37.8167 89.4611 38.8333 89.8277 39.6C90.2277 40.3333 90.7111 40.6833 91.2777 40.65C91.8777 40.6167 92.3277 40.2167 92.6277 39.45C92.9277 38.65 93.1277 37.65 93.2277 36.45C93.3277 35.2167 93.3611 33.9167 93.3277 32.55C93.2944 31.1833 93.2277 29.8833 93.1277 28.65C93.0277 27.3833 92.9277 26.35 92.8277 25.55C92.7611 24.7167 92.7111 24.25 92.6777 24.15C92.6444 24.0167 92.5944 23.7333 92.5277 23.3C92.4611 22.8667 92.4944 22.4 92.6277 21.9C92.7611 21.4 93.0944 20.95 93.6277 20.55C94.1944 20.15 95.0777 19.9 96.2777 19.8C97.4777 19.7 98.4111 19.85 99.0777 20.25C99.7444 20.65 100.211 21.1333 100.478 21.7C100.778 22.2667 100.944 22.7667 100.978 23.2C101.044 23.6333 101.078 23.85 101.078 23.85C101.078 23.85 101.128 24.2333 101.228 25C101.361 25.7667 101.461 26.7833 101.528 28.05C101.628 29.2833 101.628 30.65 101.528 32.15C101.461 33.65 101.244 35.1667 100.878 36.7C100.544 38.2 99.9944 39.5833 99.2277 40.85C98.4611 42.0833 97.4277 43.0833 96.1277 43.85C94.8277 44.6167 93.1944 45 91.2277 45C89.2611 45 87.5944 44.6 86.2277 43.8C84.8944 42.9667 83.7944 41.8833 82.9277 40.55C82.0944 39.1833 81.4444 37.6667 80.9777 36C80.5444 34.3333 80.2444 32.6333 80.0777 30.9C79.9444 29.1333 79.8777 27.4667 79.8777 25.9C79.9111 24.3333 79.9611 22.9667 80.0277 21.8C80.1277 20.6333 80.1944 19.8 80.2277 19.3C80.2944 18.4333 80.5444 17.7833 80.9777 17.35C81.4111 16.8833 81.8944 16.5667 82.4277 16.4C82.9944 16.2333 83.4777 16.15 83.8777 16.15C84.3111 16.1167 84.5277 16.1 84.5277 16.1ZM111.416 21.25C110.983 21.3167 110.366 21.3667 109.566 21.4C108.766 21.4 107.95 21.35 107.116 21.25C106.283 21.15 105.566 20.9667 104.966 20.7C104.366 20.4 104.033 19.9667 103.966 19.4C103.933 18.8333 104.1 18.3833 104.466 18.05C104.866 17.7167 105.333 17.4667 105.866 17.3C106.4 17.1 106.866 16.9833 107.266 16.95C107.7 16.8833 107.916 16.85 107.916 16.85L121.916 15.55C121.916 15.55 122.15 15.55 122.616 15.55C123.083 15.5167 123.616 15.5333 124.216 15.6C124.85 15.6667 125.416 15.8333 125.916 16.1C126.416 16.3333 126.683 16.7167 126.716 17.25C126.783 17.7833 126.616 18.2333 126.216 18.6C125.85 18.9333 125.4 19.2167 124.866 19.45C124.333 19.65 123.866 19.8 123.466 19.9C123.066 19.9667 122.866 20 122.866 20L119.666 20.5C119.8 21.3333 119.95 22.5167 120.116 24.05C120.283 25.55 120.45 27.2167 120.616 29.05C120.783 30.8833 120.933 32.6833 121.066 34.45C121.2 36.2167 121.3 37.8 121.366 39.2C121.466 40.6 121.516 41.6 121.516 42.2C121.516 42.9667 121.3 43.55 120.866 43.95C120.466 44.3167 119.983 44.5833 119.416 44.75C118.883 44.8833 118.4 44.9667 117.966 45C117.566 45 117.366 45 117.366 45C117.366 45 117.15 45 116.716 45C116.283 44.9667 115.783 44.8333 115.216 44.6C114.683 44.3667 114.2 43.9333 113.766 43.3C113.366 42.6667 113.166 41.7167 113.166 40.45C113.166 39.3167 113.1 37.9333 112.966 36.3C112.866 34.6667 112.733 32.9833 112.566 31.25C112.4 29.4833 112.216 27.85 112.016 26.35C111.85 24.85 111.7 23.6333 111.566 22.7C111.466 21.7333 111.416 21.25 111.416 21.25ZM153.363 45C150.43 45 148.196 44.3833 146.663 43.15C145.163 41.8833 144.396 40.4333 144.363 38.8C144.363 38.7333 144.363 38.6667 144.363 38.6C144.363 37.0333 144.713 35.9833 145.413 35.45C146.146 34.8833 147.363 34.6 149.063 34.6C150.163 34.6 150.98 34.7833 151.513 35.15C152.046 35.5167 152.396 35.9667 152.563 36.5C152.73 37 152.813 37.4667 152.813 37.9C152.813 38 152.813 38.0833 152.813 38.15C152.813 38.2167 152.813 38.2667 152.813 38.3C152.813 38.9 152.896 39.35 153.063 39.65C153.263 39.95 153.363 40.1 153.363 40.1V33.5C153.363 33.5 153.046 33.4667 152.413 33.4C151.78 33.3 150.996 33.1167 150.063 32.85C149.163 32.5833 148.246 32.1667 147.313 31.6C146.413 31 145.646 30.2 145.013 29.2C144.38 28.2 144.063 26.9333 144.063 25.4C144.063 25.3667 144.063 25.3333 144.063 25.3C144.096 23.7333 144.43 22.4667 145.063 21.5C145.696 20.5333 146.463 19.7833 147.363 19.25C148.296 18.6833 149.213 18.2833 150.113 18.05C151.046 17.8167 151.813 17.6833 152.413 17.65C153.046 17.5833 153.363 17.55 153.363 17.55V16.4C153.363 16.2 153.396 16.05 153.463 15.95C153.53 15.85 153.78 15.8 154.213 15.8C154.646 15.8 154.863 15.9 154.863 16.1C154.896 16.3 154.913 16.4 154.913 16.4V17.5C155.446 17.5 156.18 17.6 157.113 17.8C158.08 17.9667 159.063 18.2833 160.063 18.75C161.096 19.1833 161.98 19.7833 162.713 20.55C163.48 21.2833 163.93 22.2167 164.063 23.35C164.096 23.4833 164.113 23.6 164.113 23.7C164.113 23.8 164.113 23.9167 164.113 24.05C164.113 25.05 163.88 25.8 163.413 26.3C162.946 26.7667 162.43 27.0667 161.863 27.2C161.296 27.3333 160.846 27.4 160.513 27.4H160.163C158.996 27.4 158.096 27.2667 157.463 27C156.83 26.7 156.38 26.35 156.113 25.95C155.88 25.5167 155.73 25.1 155.663 24.7C155.596 24.3 155.563 23.9833 155.563 23.75C155.53 23.2833 155.413 22.9667 155.213 22.8C155.013 22.6 154.913 22.5 154.913 22.5C154.913 22.5 154.913 22.8333 154.913 23.5C154.913 24.1333 154.913 24.8833 154.913 25.75C154.913 26.5833 154.913 27.3333 154.913 28C154.946 28.6333 154.963 28.95 154.963 28.95C154.963 28.95 155.046 28.95 155.213 28.95C155.413 28.9167 155.663 28.9 155.963 28.9C156.563 28.9 157.313 28.9833 158.213 29.15C159.146 29.2833 160.063 29.6 160.963 30.1C161.896 30.6 162.663 31.3667 163.263 32.4C163.896 33.4333 164.213 34.8167 164.213 36.55V36.6C164.213 38.2333 163.93 39.5667 163.363 40.6C162.83 41.6333 162.146 42.45 161.313 43.05C160.513 43.65 159.68 44.1 158.813 44.4C157.946 44.6667 157.163 44.8333 156.463 44.9C155.796 44.9667 155.346 45 155.113 45H154.963V45.6C154.963 45.9 154.913 46.0833 154.813 46.15C154.713 46.2167 154.463 46.25 154.063 46.25C153.663 46.25 153.446 46.1667 153.413 46C153.413 45.8667 153.413 45.8 153.413 45.8C153.413 45.8 153.413 45.6667 153.413 45.4C153.446 45.1333 153.43 45 153.363 45ZM153.363 22.95C153.13 23.1833 152.93 23.4667 152.763 23.8C152.596 24.1 152.496 24.75 152.463 25.75V25.95C152.463 26.8167 152.53 27.45 152.663 27.85C152.83 28.25 152.98 28.5 153.113 28.6C153.28 28.7 153.363 28.75 153.363 28.75V22.95ZM154.913 33.6V39.9C154.913 39.9 155.063 39.6667 155.363 39.2C155.663 38.7 155.813 37.7833 155.813 36.45C155.813 35.55 155.763 34.9167 155.663 34.55C155.563 34.1833 155.446 33.95 155.313 33.85C155.18 33.75 155.046 33.6667 154.913 33.6ZM171.226 18.2C171.226 18.2 171.46 18.2 171.926 18.2C172.393 18.1667 172.943 18.25 173.576 18.45C174.21 18.6167 174.776 18.9667 175.276 19.5C175.81 20 176.126 20.7833 176.226 21.85C176.293 22.6833 176.426 23.7667 176.626 25.1C176.826 26.4 177.043 27.7667 177.276 29.2C177.51 30.6333 177.726 31.9833 177.926 33.25C178.16 34.4833 178.343 35.5 178.476 36.3C178.643 37.1 178.726 37.5 178.726 37.5L180.876 29.5C180.876 29.5 180.96 29.2667 181.126 28.8C181.293 28.3 181.593 27.8167 182.026 27.35C182.493 26.8833 183.176 26.65 184.076 26.65C184.976 26.65 185.66 26.8333 186.126 27.2C186.593 27.5333 186.926 27.95 187.126 28.45C187.36 28.95 187.543 29.4333 187.676 29.9C187.776 30.2333 187.926 30.8 188.126 31.6C188.36 32.3667 188.576 33.1833 188.776 34.05C189.01 34.9167 189.21 35.65 189.376 36.25C189.543 36.85 189.626 37.15 189.626 37.15L190.076 33L192.176 18.3C192.176 18.3 192.276 18.0833 192.476 17.65C192.71 17.1833 193.143 16.7333 193.776 16.3C194.443 15.8667 195.426 15.7 196.726 15.8C198.693 15.9333 199.893 16.3333 200.326 17C200.793 17.6667 200.86 18.4833 200.526 19.45C200.36 19.9167 200.11 20.9333 199.776 22.5C199.443 24.0333 199.06 25.8833 198.626 28.05C198.193 30.2167 197.776 32.5 197.376 34.9C196.976 37.2667 196.626 39.5167 196.326 41.65C196.193 42.75 195.893 43.6 195.426 44.2C194.993 44.7667 194.526 45.1667 194.026 45.4C193.526 45.6333 193.093 45.7667 192.726 45.8C192.36 45.8333 192.176 45.85 192.176 45.85C192.176 45.85 191.96 45.85 191.526 45.85C191.093 45.8833 190.56 45.8167 189.926 45.65C189.326 45.4833 188.726 45.1333 188.126 44.6C187.56 44.0667 187.11 43.2333 186.776 42.1C186.143 39.8333 185.593 37.9333 185.126 36.4C184.66 34.8667 184.426 34.1 184.426 34.1L181.626 42.6C181.626 42.6 181.526 42.8 181.326 43.2C181.126 43.6 180.726 44 180.126 44.4C179.56 44.8 178.71 45 177.576 45C175.876 45 174.693 44.7333 174.026 44.2C173.393 43.6333 172.893 42.7333 172.526 41.5C172.426 41.0667 172.226 40.3 171.926 39.2C171.626 38.0667 171.293 36.75 170.926 35.25C170.56 33.75 170.176 32.2167 169.776 30.65C169.376 29.05 169.01 27.5833 168.676 26.25C168.343 24.8833 168.06 23.7833 167.826 22.95C167.626 22.0833 167.526 21.65 167.526 21.65C167.526 21.65 167.493 21.5 167.426 21.2C167.36 20.9 167.393 20.55 167.526 20.15C167.66 19.7167 167.993 19.3167 168.526 18.95C169.093 18.5833 169.993 18.3333 171.226 18.2ZM209.468 45C208.202 45 207.285 44.8167 206.718 44.45C206.152 44.05 205.802 43.6667 205.668 43.3C205.535 42.9333 205.468 42.75 205.468 42.75C205.468 42.75 205.452 42.35 205.418 41.55C205.418 40.7167 205.402 39.6333 205.368 38.3C205.368 36.9667 205.352 35.5 205.318 33.9C205.285 32.3 205.252 30.7 205.218 29.1C205.218 27.5 205.202 26.0333 205.168 24.7C205.135 23.3667 205.102 22.3 205.068 21.5C205.068 20.6667 205.068 20.25 205.068 20.25C205.035 20.25 204.852 20.0833 204.518 19.75C204.218 19.4167 204.052 19.0667 204.018 18.7C204.018 18.4333 204.335 18.05 204.968 17.55C205.602 17.05 206.668 16.6333 208.168 16.3C209.702 15.9333 211.802 15.8667 214.468 16.1C216.868 16.3 218.752 16.7 220.118 17.3C221.518 17.8667 222.535 18.4833 223.168 19.15C223.802 19.7833 224.202 20.35 224.368 20.85C224.535 21.3167 224.618 21.55 224.618 21.55C224.618 21.55 224.635 21.6 224.668 21.7C224.735 21.8 224.785 22.1167 224.818 22.65C224.885 23.15 224.935 23.9833 224.968 25.15C225.002 26.3167 225.002 27.95 224.968 30.05C224.935 31.75 224.535 33.1 223.768 34.1C223.035 35.1 222.118 35.85 221.018 36.35C219.918 36.8167 218.818 37.1333 217.718 37.3C216.652 37.4333 215.752 37.5 215.018 37.5C214.285 37.4667 213.918 37.45 213.918 37.45C213.918 37.45 213.918 37.8167 213.918 38.55C213.952 39.25 213.952 40.4333 213.918 42.1C213.918 42.9333 213.685 43.5667 213.218 44C212.785 44.4 212.268 44.6667 211.668 44.8C211.102 44.9333 210.585 45 210.118 45C209.685 45 209.468 45 209.468 45ZM213.418 20.75L213.868 33.15C213.868 33.15 214.085 33.1333 214.518 33.1C214.952 33.0333 215.452 32.8667 216.018 32.6C216.585 32.3333 217.068 31.8833 217.468 31.25C217.902 30.5833 218.085 29.65 218.018 28.45C217.952 26.85 217.885 25.65 217.818 24.85C217.752 24.05 217.702 23.5333 217.668 23.3C217.668 23.0333 217.668 22.9 217.668 22.9C217.668 22.9 217.635 22.7667 217.568 22.5C217.535 22.2 217.402 21.8833 217.168 21.55C216.935 21.2167 216.518 20.9667 215.918 20.8C215.352 20.6 214.518 20.5833 213.418 20.75ZM228.215 19.65C228.215 19.65 228.182 19.5167 228.115 19.25C228.049 18.95 228.065 18.6 228.165 18.2C228.299 17.8 228.599 17.4333 229.065 17.1C229.565 16.7667 230.349 16.55 231.415 16.45C232.482 16.35 233.682 16.2667 235.015 16.2C236.382 16.1333 237.682 16.0667 238.915 16C240.182 15.9333 241.215 15.8833 242.015 15.85C242.815 15.8167 243.215 15.8 243.215 15.8C243.215 15.8 243.432 15.8167 243.865 15.85C244.332 15.85 244.865 15.9167 245.465 16.05C246.099 16.15 246.665 16.3667 247.165 16.7C247.665 17 247.965 17.45 248.065 18.05C248.165 18.65 248.049 19.1167 247.715 19.45C247.382 19.7833 246.982 20.0333 246.515 20.2C246.049 20.3333 245.632 20.4167 245.265 20.45C244.899 20.4833 244.715 20.5 244.715 20.5L236.715 20.95C236.715 20.95 236.765 21.1667 236.865 21.6C236.965 22.0333 237.065 22.5333 237.165 23.1C237.299 23.6333 237.382 24.1 237.415 24.5C237.449 24.8667 237.482 25.35 237.515 25.95C237.549 26.5167 237.582 27.0333 237.615 27.5C237.649 27.9333 237.665 28.15 237.665 28.15H241.365C241.365 28.15 241.549 28.1667 241.915 28.2C242.282 28.2 242.699 28.2667 243.165 28.4C243.665 28.5 244.099 28.6667 244.465 28.9C244.832 29.1333 245.032 29.4833 245.065 29.95C245.099 30.55 244.865 31 244.365 31.3C243.899 31.6 243.399 31.8 242.865 31.9C242.365 31.9667 242.049 32.0167 241.915 32.05C241.815 32.05 241.549 32.0667 241.115 32.1C240.682 32.1 240.199 32.1 239.665 32.1C239.165 32.1 238.715 32.1 238.315 32.1C237.915 32.1 237.715 32.1 237.715 32.1C237.715 32.1 237.715 32.35 237.715 32.85C237.749 33.3167 237.782 33.8667 237.815 34.5C237.849 35.1333 237.849 35.6833 237.815 36.15C237.815 36.5833 237.799 37.1167 237.765 37.75C237.732 38.35 237.699 38.8833 237.665 39.35C237.632 39.7833 237.615 40 237.615 40L244.365 39.75C244.365 39.75 244.582 39.75 245.015 39.75C245.449 39.7167 245.965 39.75 246.565 39.85C247.165 39.95 247.699 40.15 248.165 40.45C248.632 40.75 248.882 41.2 248.915 41.8C248.982 42.4 248.815 42.8833 248.415 43.25C248.015 43.6167 247.549 43.8833 247.015 44.05C246.482 44.2167 245.999 44.3333 245.565 44.4C245.165 44.4333 244.965 44.45 244.965 44.45L234.165 45C234.165 45 233.899 45 233.365 45C232.865 45.0333 232.282 45 231.615 44.9C230.949 44.7667 230.365 44.5167 229.865 44.15C229.365 43.75 229.132 43.15 229.165 42.35C229.232 41.2833 229.299 39.6167 229.365 37.35C229.432 35.05 229.399 32.3667 229.265 29.3C229.132 26.2333 228.782 23.0167 228.215 19.65ZM257.367 45C256.1 45 255.183 44.8167 254.617 44.45C254.05 44.05 253.7 43.6667 253.567 43.3C253.433 42.9333 253.367 42.75 253.367 42.75C253.367 42.75 253.35 42.35 253.317 41.55C253.317 40.7167 253.3 39.6333 253.267 38.3C253.267 36.9667 253.25 35.5 253.217 33.9C253.183 32.3 253.15 30.7 253.117 29.1C253.117 27.5 253.1 26.0333 253.067 24.7C253.033 23.3667 253 22.3 252.967 21.5C252.967 20.6667 252.967 20.25 252.967 20.25C252.933 20.25 252.75 20.0833 252.417 19.75C252.117 19.4167 251.95 19.0667 251.917 18.7C251.917 18.4333 252.233 18.05 252.867 17.55C253.5 17.05 254.567 16.6333 256.067 16.3C257.6 15.9333 259.7 15.8667 262.367 16.1C264.767 16.3 266.65 16.7 268.017 17.3C269.417 17.8667 270.433 18.4833 271.067 19.15C271.7 19.7833 272.1 20.35 272.267 20.85C272.433 21.3167 272.517 21.55 272.517 21.55C272.517 21.55 272.533 21.6 272.567 21.7C272.633 21.8 272.683 22.1167 272.717 22.65C272.783 23.15 272.833 23.9833 272.867 25.15C272.9 26.3167 272.9 27.95 272.867 30.05C272.833 31.75 272.433 33.1 271.667 34.1C270.933 35.1 270.017 35.85 268.917 36.35C267.817 36.8167 266.717 37.1333 265.617 37.3C264.55 37.4333 263.65 37.5 262.917 37.5C262.183 37.4667 261.817 37.45 261.817 37.45C261.817 37.45 261.817 37.8167 261.817 38.55C261.85 39.25 261.85 40.4333 261.817 42.1C261.817 42.9333 261.583 43.5667 261.117 44C260.683 44.4 260.167 44.6667 259.567 44.8C259 44.9333 258.483 45 258.017 45C257.583 45 257.367 45 257.367 45ZM261.317 20.75L261.767 33.15C261.767 33.15 261.983 33.1333 262.417 33.1C262.85 33.0333 263.35 32.8667 263.917 32.6C264.483 32.3333 264.967 31.8833 265.367 31.25C265.8 30.5833 265.983 29.65 265.917 28.45C265.85 26.85 265.783 25.65 265.717 24.85C265.65 24.05 265.6 23.5333 265.567 23.3C265.567 23.0333 265.567 22.9 265.567 22.9C265.567 22.9 265.533 22.7667 265.467 22.5C265.433 22.2 265.3 21.8833 265.067 21.55C264.833 21.2167 264.417 20.9667 263.817 20.8C263.25 20.6 262.417 20.5833 261.317 20.75ZM276.114 19.65C276.114 19.65 276.08 19.5167 276.014 19.25C275.947 18.95 275.964 18.6 276.064 18.2C276.197 17.8 276.497 17.4333 276.964 17.1C277.464 16.7667 278.247 16.55 279.314 16.45C280.38 16.35 281.58 16.2667 282.914 16.2C284.28 16.1333 285.58 16.0667 286.814 16C288.08 15.9333 289.114 15.8833 289.914 15.85C290.714 15.8167 291.114 15.8 291.114 15.8C291.114 15.8 291.33 15.8167 291.764 15.85C292.23 15.85 292.764 15.9167 293.364 16.05C293.997 16.15 294.564 16.3667 295.064 16.7C295.564 17 295.864 17.45 295.964 18.05C296.064 18.65 295.947 19.1167 295.614 19.45C295.28 19.7833 294.88 20.0333 294.414 20.2C293.947 20.3333 293.53 20.4167 293.164 20.45C292.797 20.4833 292.614 20.5 292.614 20.5L284.614 20.95C284.614 20.95 284.664 21.1667 284.764 21.6C284.864 22.0333 284.964 22.5333 285.064 23.1C285.197 23.6333 285.28 24.1 285.314 24.5C285.347 24.8667 285.38 25.35 285.414 25.95C285.447 26.5167 285.48 27.0333 285.514 27.5C285.547 27.9333 285.564 28.15 285.564 28.15H289.264C289.264 28.15 289.447 28.1667 289.814 28.2C290.18 28.2 290.597 28.2667 291.064 28.4C291.564 28.5 291.997 28.6667 292.364 28.9C292.73 29.1333 292.93 29.4833 292.964 29.95C292.997 30.55 292.764 31 292.264 31.3C291.797 31.6 291.297 31.8 290.764 31.9C290.264 31.9667 289.947 32.0167 289.814 32.05C289.714 32.05 289.447 32.0667 289.014 32.1C288.58 32.1 288.097 32.1 287.564 32.1C287.064 32.1 286.614 32.1 286.214 32.1C285.814 32.1 285.614 32.1 285.614 32.1C285.614 32.1 285.614 32.35 285.614 32.85C285.647 33.3167 285.68 33.8667 285.714 34.5C285.747 35.1333 285.747 35.6833 285.714 36.15C285.714 36.5833 285.697 37.1167 285.664 37.75C285.63 38.35 285.597 38.8833 285.564 39.35C285.53 39.7833 285.514 40 285.514 40L292.264 39.75C292.264 39.75 292.48 39.75 292.914 39.75C293.347 39.7167 293.864 39.75 294.464 39.85C295.064 39.95 295.597 40.15 296.064 40.45C296.53 40.75 296.78 41.2 296.814 41.8C296.88 42.4 296.714 42.8833 296.314 43.25C295.914 43.6167 295.447 43.8833 294.914 44.05C294.38 44.2167 293.897 44.3333 293.464 44.4C293.064 44.4333 292.864 44.45 292.864 44.45L282.064 45C282.064 45 281.797 45 281.264 45C280.764 45.0333 280.18 45 279.514 44.9C278.847 44.7667 278.264 44.5167 277.764 44.15C277.264 43.75 277.03 43.15 277.064 42.35C277.13 41.2833 277.197 39.6167 277.264 37.35C277.33 35.05 277.297 32.3667 277.164 29.3C277.03 26.2333 276.68 23.0167 276.114 19.65Z" fill="#FFA3EB"/>
</svg>
